<?xml version="1.0" encoding="UTF-8"?>
<svg width="20px" height="16px" viewBox="0 0 20 16" version="1.1" xmlns="http://www.w3.org/2000/svg" xmlns:xlink="http://www.w3.org/1999/xlink">
    <!-- Generator: Sketch 52.4 (67378) - http://www.bohemiancoding.com/sketch -->
    <title>featured_play_list-24px copy</title>
    <desc>Created with Sketch.</desc>
    <g id="Page-1" stroke="none" stroke-width="1" fill="none" fill-rule="evenodd">
        <g id="1440-новое--иви-обзор-кино-copy-5" transform="translate(-525.000000, -996.000000)" fill="#000000" fill-rule="nonzero">
            <g id="featured_play_list-24px-copy" transform="translate(525.000000, 996.000000)">
                <path d="M18.1818182,0 L1.81818182,0 C0.818181818,0 0,0.8 0,1.77777778 L0,14.2222222 C0,15.2 0.818181818,16 1.81818182,16 L18.1818182,16 C19.1818182,16 20,15.2 20,14.2222222 L20,1.77777778 C20,0.8 19.1818182,0 18.1818182,0 Z M9.09090909,7.11111111 L2.72727273,7.11111111 C2.22727273,7.11111111 1.81818182,6.71111111 1.81818182,6.22222222 C1.81818182,5.73333333 2.22727273,5.33333333 2.72727273,5.33333333 L9.09090909,5.33333333 C9.59090909,5.33333333 10,5.73333333 10,6.22222222 C10,6.71111111 9.59090909,7.11111111 9.09090909,7.11111111 Z M9.09090909,3.55555556 L2.72727273,3.55555556 C2.22727273,3.55555556 1.81818182,3.15555556 1.81818182,2.66666667 C1.81818182,2.17777778 2.22727273,1.77777778 2.72727273,1.77777778 L9.09090909,1.77777778 C9.59090909,1.77777778 10,2.17777778 10,2.66666667 C10,3.15555556 9.59090909,3.55555556 9.09090909,3.55555556 Z" id="Shape"></path>
            </g>
        </g>
    </g>
</svg>