<?xml version="1.0" encoding="UTF-8"?>
<svg width="134px" height="12px" viewBox="0 0 134 12" version="1.1" xmlns="http://www.w3.org/2000/svg" xmlns:xlink="http://www.w3.org/1999/xlink">
    <!-- Generator: Sketch 52.4 (67378) - http://www.bohemiancoding.com/sketch -->
    <title>Group 22 Copy 2</title>
    <desc>Created with Sketch.</desc>
    <defs>
        <polygon id="path-1" points="0.0918658272 0.104176991 12.8964602 0.104176991 12.8964602 11.9651017 0.0918658272 11.9651017"></polygon>
    </defs>
    <g id="рейтинг" stroke="none" stroke-width="1" fill="none" fill-rule="evenodd">
        <g id="1440-кино-рейтинг-" transform="translate(-562.000000, -546.000000)">
            <g id="Group-22-Copy-2" transform="translate(562.000000, 546.000000)">
                <path d="M21.9764402,5.15553869 C23.3194135,3.73872501 24.5891317,2.3993891 25.8586262,1.06005319 C26.0848782,0.821226624 26.3293602,0.595945122 26.5323496,0.339780875 C26.8667508,-0.0826083962 27.3278667,-0.00827308583 27.7567726,0.0567432206 C27.8603363,0.0725638551 27.9811234,0.384642126 27.9831365,0.56159484 C28.0008072,2.16749761 27.9945442,3.77350874 27.9940968,5.37951987 C27.9935376,7.40066011 27.9797813,9.42180036 27.9999125,11.4427239 C28.0042743,11.8818007 27.8460208,12.0077156 27.4170031,11.9927618 C26.7102869,11.9677306 26.0014457,11.9752074 25.2942821,11.9942789 C24.8877442,12.0053317 24.7406747,11.8616456 24.746043,11.4582194 C24.7647203,10.0509415 24.7514114,8.64333845 24.7480562,7.23573541 C24.7478325,7.15002225 24.728596,7.06430909 24.7074583,6.89017375 C24.5459615,7.00384392 24.4239442,7.0664763 24.3324592,7.15793257 C23.6978797,7.79238336 23.0611752,8.4253171 22.4430362,9.07472164 C22.1329042,9.40067006 21.8663898,9.40728005 21.5549157,9.08469081 C20.9448292,8.45251559 20.3227758,7.8309597 19.7029592,7.20756168 C19.6046519,7.10884526 19.4923647,7.02313209 19.2988817,6.85549838 C19.2789742,7.12423245 19.2564944,7.29143272 19.2558233,7.45874135 C19.2502313,8.79406792 19.2311067,10.1296112 19.2563825,11.4645043 C19.2643232,11.8816923 19.1165827,12.0009972 18.7133999,11.9890776 C18.0435909,11.969356 17.3710977,11.9606871 16.7026307,11.9968795 C16.175082,12.0253783 15.9964737,11.8630543 16.0000526,11.3287286 C16.0232034,7.82803397 16.0076577,4.32712259 16.0197364,0.826536289 C16.0206311,0.566037621 16.084939,0.113632489 16.2110944,0.0809076145 C16.6408951,-0.030595351 17.1101752,-0.0886765848 17.4872993,0.33252072 C18.3652424,1.31285826 19.2749479,2.26664748 20.173134,3.22986406 C20.756379,3.8551042 21.3420844,4.4782855 21.9764402,5.15553869" id="Fill-1" fill="#000000"></path>
                <path d="M48.2759528,5.98468442 L48.2679908,5.98468442 C48.2679908,6.89387342 48.2554132,7.8034991 48.2803377,8.71214223 C48.2844917,8.86400125 48.4239994,9.11717239 48.5473523,9.14588477 C50.6703145,9.64120063 52.471336,8.47250848 52.7779297,6.42563235 C53.0039805,4.91610351 52.1790508,3.40537377 50.7731278,2.98767959 C50.1334005,2.79771935 49.4104764,2.8603844 48.725862,2.80252295 C48.362496,2.77162711 48.2667215,2.94226381 48.2713372,3.25711744 C48.2844917,4.16608809 48.2759528,5.07538626 48.2759528,5.98468442 M45.0675082,0.00977995349 C46.865068,0.00977995349 48.6487809,-0.0211158781 50.4300706,0.0269200438 C51.0305649,0.0430775811 51.6554068,0.186857829 52.2170144,0.396796642 C54.5010623,1.25129019 55.6668568,2.95984059 55.9416026,5.18565053 C56.1967319,7.25152269 55.6308548,9.1191375 53.9485706,10.5771369 C52.781853,11.5881839 51.3633523,11.9705061 49.8209219,11.9914673 C48.3798046,12.0110092 46.9382258,11.9896113 45.4968778,11.9984543 C45.1771296,12.0004194 44.998966,11.9417938 45.0000045,11.5832711 C45.012236,7.78330218 45.011659,3.98322407 45.0160439,0.183145962 C45.0160439,0.149193299 45.0354295,0.115131464 45.0675082,0.00977995349" id="Fill-3" fill="#000000"></path>
                <path d="M119,11.9929314 C117.740277,11.9929314 116.668173,12.0190769 115.599979,11.9708 C115.387054,11.9611446 115.123744,11.7030526 114.994217,11.4975772 C114.290332,10.3808061 113.624753,9.24255452 112.938928,8.11569412 C112.45418,7.31906989 112.43428,7.31570677 111.30995,7.48668319 C111.30995,8.07935079 111.310525,8.68720665 111.30972,9.295171 C111.308915,10.0540416 111.319268,10.8132376 111.293616,11.5713487 C111.288899,11.7102128 111.138322,11.9603852 111.048941,11.9628804 C110.041255,11.9908702 109.032533,11.9806723 108,11.9806723 L108,0.0557185111 L111.322374,0.0557185111 L111.322374,4.44740388 C111.367467,4.46432794 111.412675,4.48103503 111.457882,4.49774211 C111.576481,4.35453852 111.707963,4.21914603 111.811838,4.06682948 C112.62995,2.86760787 113.451974,1.67044752 114.251451,0.460051689 C114.467367,0.133178637 114.717678,-0.00959100677 115.134442,0.000498337352 C116.162259,0.0253419911 117.191111,0.00852641762 118.353631,0.00852641762 C118.126097,0.387690479 117.974024,0.665635636 117.798599,0.929694384 C116.924465,2.24521467 116.057579,3.56529144 115.157218,4.86464708 C114.93279,5.18848248 114.932675,5.42411748 115.14537,5.74372187 C116.346656,7.5485211 117.533678,9.36167388 118.709773,11.1812274 C118.845511,11.3912594 118.883587,11.6575963 119,11.9929314" id="Fill-5" fill="#000000"></path>
                <path d="M40.8362052,0.0380066833 C40.8362052,0.877004151 40.8510074,1.68875436 40.816507,2.49865176 C40.8125218,2.59369019 40.539252,2.75281416 40.3881565,2.75575686 C39.2132101,2.77755466 38.0371249,2.78551086 36.8622923,2.76044339 C36.3913573,2.7504164 36.2370737,2.89951338 36.2536976,3.35072791 C36.3002673,4.62252078 36.0950872,4.4009461 37.3641979,4.41914727 C38.2361565,4.431681 39.1086843,4.43538663 39.9803013,4.41576861 C40.3783644,4.40672252 40.5178459,4.54481161 40.5015635,4.92354845 C40.4766277,5.50326104 40.4733256,6.08591633 40.505321,6.66508398 C40.5284351,7.08643553 40.3453443,7.19313578 39.9386276,7.18572452 C38.8963309,7.16676043 37.8528955,7.19618747 36.8107126,7.17417169 C36.3840701,7.1651256 36.2355935,7.31127987 36.2568857,7.71083362 C36.2828464,8.19463587 36.2631482,8.6807269 36.2631482,9.24692485 L39.6241396,9.24692485 C41.0021028,9.24692485 41.0021028,9.24692485 40.9998256,10.5542481 C40.9975483,11.9981347 40.9975483,11.9976987 39.477257,11.9960639 C37.5245163,11.9938841 35.5715477,11.9799335 33.6189208,11.9998785 C33.1455947,12.004783 32.9995091,11.8621164 33.0016725,11.4105749 C33.0187519,7.83551705 33.0279748,4.26024128 33.0000785,0.685292467 C32.9956378,0.11386304 33.1789563,-0.0068967925 33.7385902,0.000296482751 C35.9375016,0.0286336277 38.1369823,0.00912459329 40.3362353,0.0092335823 C40.4827762,0.00934257132 40.629431,0.0256909242 40.8362052,0.0380066833" id="Fill-7" fill="#000000"></path>
                <path d="M103.459765,7.12566021 C103.163828,7.13955998 102.939707,7.15827543 102.715585,7.15915101 C101.726619,7.1630911 100.737424,7.17261299 99.7486855,7.15707151 C99.3664343,7.15094248 99.18273,7.26203124 99.2073914,7.65461784 C99.2302259,8.01776318 99.2318244,8.3855053 99.1993992,8.74755617 C99.1627497,9.15535591 99.3638084,9.2413813 99.7378391,9.23623729 C100.935856,9.21992968 102.134673,9.24367969 103.332119,9.21434788 C103.817354,9.20241815 104.029488,9.3286106 103.99672,9.82550025 C103.958358,10.4067736 103.980051,10.9918776 103.987586,11.5752304 C103.991354,11.8717225 103.869646,12.0009794 103.548477,11.9999944 C101.190005,11.9929898 98.831648,11.9917859 96.4732906,11.9991188 C96.1338543,12.0002133 95.977209,11.8856222 96.0026695,11.5527937 C96.0165986,11.37144 96.0058664,11.188335 96.0058664,11.0059962 C96.004953,7.61477911 96.0039254,4.223562 96.0028979,0.832344882 L96.0028979,0 L103.82489,0 C103.82489,0.833877141 103.843272,1.63273122 103.803083,2.42906802 C103.797602,2.53676393 103.499154,2.71417761 103.333033,2.71789881 C102.154311,2.74307163 100.974561,2.74657394 99.795839,2.72359006 C99.3526194,2.71494374 99.1936906,2.84803136 99.2036236,3.28319287 C99.2345645,4.62972003 99.0591948,4.36442036 100.34033,4.38576254 C101.215009,4.400319 102.090374,4.40207015 102.964939,4.38554364 C103.331206,4.37864848 103.475406,4.49663241 103.465816,4.85693213 C103.44595,5.59942097 103.459765,6.34267595 103.459765,7.12566021" id="Fill-9" fill="#000000"></path>
                <path d="M75.5669724,5.03077967 C75.5132013,5.03185147 75.4594303,5.03303044 75.4056592,5.03399505 C74.9758404,5.9504851 74.5459049,6.86697516 74.0877426,7.84359279 L76.9026183,7.84359279 C76.4372243,6.86354542 76.00204,5.94716255 75.5669724,5.03077967 Z M80.3647299,11.9544542 C80.2869309,11.9544542 80.2069158,11.9435219 80.1317996,11.9560619 C79.1326605,12.1227257 78.4513656,11.827018 78.1981399,10.866906 C78.1190579,10.5670184 77.8862443,10.4617683 77.542156,10.4656268 C76.1815491,10.4808462 74.8203591,10.4880273 73.4601022,10.4651981 C73.0380983,10.4581242 72.8353778,10.6499751 72.7520968,10.9625099 C72.5276812,11.8049391 71.9716578,12.0945375 71.053117,11.9631357 C70.5783918,11.8951841 70.0831379,11.9503814 69.5970986,11.948345 C68.9861377,11.9457727 68.8753296,11.7990442 69.1230732,11.2670063 C69.3523876,10.774839 69.6129616,10.2951045 69.8568561,9.80872495 C71.4169175,6.69752471 72.9929586,3.59286241 74.5194276,0.467836037 C74.775336,-0.0563778385 75.1693463,0.0259358512 75.6025477,0.00278512599 C76.0135874,-0.0190794478 76.2690292,0.0833839472 76.4595025,0.467192961 C78.2255504,4.02243697 80.0171424,7.56685588 81.8005696,11.1148117 C82.1557387,11.8213375 82.0758402,11.939985 81.239414,11.9498455 C80.9479304,11.9532752 80.6562135,11.9504886 80.3647299,11.9504886 L80.3647299,11.9544542 Z" id="Fill-11" fill="#000000"></path>
                <g id="Group-15" transform="translate(121.000000, 0.000000)">
                    <mask id="mask-2" fill="white">
                        <use xlink:href="#path-1"></use>
                    </mask>
                    <g id="Clip-14"></g>
                    <path d="M6.43103097,5.10868673 C5.99639381,6.01781947 5.56152655,6.92684602 5.10790708,7.87558938 C5.27736726,7.8991646 5.35306637,7.92889912 5.41921681,7.91615575 C6.32150885,7.74273982 6.78778319,8.10996106 7.01131416,8.90801416 C7.15212832,9.41052743 7.42719912,9.88096991 7.69456195,10.4842619 C6.93400442,10.4842619 6.29424336,10.4843681 5.65436726,10.4842619 C5.48191593,10.4842619 5.30394248,10.5096425 5.13793363,10.4795894 C4.26612832,10.3216779 3.76465044,10.6788106 3.54733186,11.4351292 C3.4294115,11.8452531 3.16089823,11.9860673 2.70210177,11.9616425 C2.05267699,11.9272354 1.39968584,11.9542088 0.748190265,11.9534655 C0.0841548673,11.9527221 -0.046420354,11.7850407 0.223818584,11.2197664 C0.563659292,10.5085805 0.933066372,9.80939469 1.28636726,9.10351858 C2.6995708,6.28033274 4.13187168,3.46489912 5.50676549,0.625890265 C5.77700442,0.0676247788 6.19979204,0.154385841 6.66514602,0.109890265 C7.15028761,0.0634831858 7.32860619,0.30220885 7.50404867,0.655624779 C9.21797788,4.10939469 10.9457124,7.5571115 12.6693053,11.0067398 C12.7332699,11.1349168 12.8097743,11.2607575 12.8508451,11.3953062 C12.957146,11.7446867 12.9039956,11.9787398 12.4094204,11.9615363 C11.7205354,11.9376425 11.0273938,11.9182088 10.3409248,11.9616425 C9.85164159,11.9926513 9.61073894,11.8154124 9.4364469,11.4207929 C8.62009292,9.57268673 7.78671239,7.73105841 6.95793363,5.88773097 C6.84265929,5.63148319 6.7194469,5.37831504 6.59991593,5.12376637 C6.54365929,5.11877522 6.48728761,5.11367788 6.43103097,5.10868673" id="Fill-13" fill="#000000" mask="url(#mask-2)"></path>
                </g>
                <path d="M5.2847902,10.4951726 C5.68730121,9.59942244 6.03215999,8.80782176 6.4080713,8.02896967 C6.44908407,7.94415917 6.66680327,7.90191598 6.80636386,7.89359699 C7.1332942,7.87414999 7.46245095,7.88733073 7.90726371,7.88733073 C7.42952356,6.88602664 6.98752311,5.95948543 6.48869068,4.91366933 C6.22855256,5.44630088 6.01317694,5.86203439 5.82029976,6.28651904 C5.03683873,8.01017091 4.24611258,9.73122984 3.49194638,11.4657936 C3.31699763,11.8683464 3.08369358,12.0196008 2.62235854,11.997993 C1.96052966,11.9668778 1.29577129,11.9934554 0.632301898,11.9890258 C0.00175989893,11.9848123 -0.135925819,11.8015784 0.12491538,11.2618163 C0.577227611,10.3256596 1.05227263,9.39879429 1.51841203,8.46836369 C2.84230415,5.82659764 4.17650805,3.18936923 5.47977661,0.539068123 C5.68191096,0.127980286 5.93267474,-0.021437448 6.41100078,0.00243913858 C6.87198429,0.0255594532 7.23512304,0.016160073 7.48190272,0.517352314 C9.24638914,4.10143323 11.0537632,7.66747167 12.8428573,11.2412889 C13.1402584,11.8350704 13.0370234,11.9824354 12.3477746,11.986757 C11.6843052,11.9909705 11.0200155,11.9696868 10.3576008,11.9939956 C9.90962418,12.0104175 9.59159946,11.897733 9.47945884,11.4702232 C9.26466912,10.6509646 8.72107418,10.3815157 7.81551229,10.4778864 C7.03193408,10.5611843 6.22972435,10.4951726 5.2847902,10.4951726" id="Fill-16" fill="#000000"></path>
                <path d="M89.0431235,2.76169874 C89.0431235,3.12768662 89.0432333,3.39651343 89.0431235,3.66534025 C89.0429039,6.22398768 89.0266532,8.78285296 89.0554214,11.3413915 C89.0615703,11.8816593 88.8910473,12.0308865 88.3738781,11.9949413 C87.7732592,11.9531141 87.1659424,11.9612834 86.5640059,11.9926538 C86.107228,12.0163995 85.9648144,11.8522496 85.9676692,11.4021716 C85.985018,8.75289859 85.9618497,6.10318989 85.9899591,3.45391689 C85.9957787,2.90384582 85.8471063,2.70843443 85.2831613,2.75352936 C84.6833111,2.80145635 84.0763236,2.75102409 83.4730695,2.76921456 C83.1112707,2.78021598 82.9894999,2.63403868 83.0006997,2.28602341 C83.0201347,1.66961704 83.02277,1.05179463 83.0037742,0.435388256 C82.9932331,0.0933638659 83.1387213,0.00175797025 83.4585755,0.00262936997 C86.1476353,0.0100362676 88.8366951,0.011887992 91.5257549,1.51708096e-05 C91.8893105,-0.00161870367 92.0093245,0.12854663 91.9994422,0.475472644 C91.9819837,1.09198795 91.9834111,1.7095925 91.9982344,2.32621673 C92.0061402,2.6563683 91.8763538,2.77368048 91.5449703,2.76692714 C90.7434131,2.75058839 89.9414166,2.76169874 89.0431235,2.76169874" id="Fill-18" fill="#000000"></path>
                <path d="M64.8160323,0.00436282984 C64.8160323,0.84472712 64.8289015,1.61931053 64.8011423,2.39226302 C64.7973134,2.50023064 64.6039559,2.67343549 64.4814323,2.6905059 C64.1722517,2.7336712 63.8536052,2.70474936 63.5096458,2.70474936 C63.4990101,2.89991742 63.4831628,3.05877008 63.4829501,3.21762274 C63.4798658,5.0474184 63.4902888,6.87743152 63.4696555,8.70711845 C63.4648694,9.12855097 63.577289,9.27283398 64.0053771,9.2653317 C65.0952201,9.24608672 64.9798225,9.11756937 64.9733347,10.2909697 C64.9703567,10.8252627 65.0972409,11.5310208 64.822201,11.84155 C64.5823653,12.1123933 63.8610503,11.9531057 63.352237,11.9568025 C62.0762687,11.9662619 60.8000877,11.947778 59.5243321,11.9680015 C59.1252796,11.9744165 58.9862707,11.8267629 59.0010543,11.4308817 C59.0214749,10.8882166 59.0180715,10.3437032 59.0014798,9.80071193 C58.9898868,9.42309708 59.0950742,9.24597799 59.5103993,9.24630418 C60.5151566,9.24728273 60.5148375,9.22749411 60.5149439,8.20729251 C60.5151566,6.57668787 60.5026064,4.9459745 60.5251542,3.31569605 C60.5315356,2.85370771 60.4136917,2.67191329 59.9308297,2.69322412 C59.1520817,2.72779985 59.1504863,2.69746454 59.1484655,1.91309554 C59.1470829,1.40576732 59.1528262,0.898439109 59.143254,0.39132835 C59.1381489,0.123964424 59.2239792,-0.00150852113 59.5094421,1.36809751e-05 C61.2446612,0.00871197871 62.9796675,0.00436282984 64.8160323,0.00436282984" id="Fill-20" fill="#000000"></path>
            </g>
        </g>
    </g>
</svg>