<?xml version="1.0" encoding="UTF-8"?>
<svg width="39px" height="38px" viewBox="0 0 39 38" version="1.1" xmlns="http://www.w3.org/2000/svg" xmlns:xlink="http://www.w3.org/1999/xlink">
    <!-- Generator: Sketch 52.4 (67378) - http://www.bohemiancoding.com/sketch -->
    <title>Laurel wreath </title>
    <desc>Created with Sketch.</desc>
    <g id="Page-1" stroke="none" stroke-width="1" fill="none" fill-rule="evenodd">
        <g id="1440-новое--иви-обзор-кино-copy-5" transform="translate(-261.000000, -194.000000)" fill="#F8E71C">
            <g id="Group-2" transform="translate(261.000000, 194.000000)">
                <g id="Laurel-wreath-">
                    <path d="M30.3261303,4 C31.4066779,3.09595559 31.0384149,2.01608701 30.2657847,1.19451682 C29.4328089,0.467656055 28.330083,0 28.330083,0 C28.2424013,0.0951625694 26.904998,2.00657075 30.3261303,4 Z" id="Path"></path>
                    <path d="M32.8395086,2.00608228 C32.8370821,2.00608228 30.4311928,3.94365065 33.7761432,7 C36.934252,5.56909917 33.0020851,1.82893317 32.8395086,2.00608228 Z" id="Path"></path>
                    <path d="M36.9487524,9.16459919 C36.6768808,8.01792974 36.0796547,7 36.0796547,7 C35.9771457,7.04795163 34.0285842,8.29730011 35.6277239,12 C36.8796702,11.6387991 37.1261374,10.3686021 36.9487524,9.16459919 Z" id="Path"></path>
                    <path d="M36.1827707,15.9981954 C38.7975197,16.1108798 37.8829158,10.9085234 37.6801667,11.0012244 C37.6801667,10.981241 35.34096,11.6767758 36.1827707,15.9981954 Z" id="Path"></path>
                    <path d="M38.9886929,17.0039444 C38.877981,16.9804667 36.2056077,16.9375075 36,20.9097336 C37.4308189,21.2943681 38.4472592,20.3927248 38.76147,19.2857765 C39.0767352,18.1878196 38.9886929,17.0039444 38.9886929,17.0039444 Z" id="Path"></path>
                    <path d="M37.4309184,22.1853854 C36.6622677,22.5766082 35.7632642,23.4258054 35,25.642541 C36.3546997,26.49406 37.4309184,25.6965227 38.1699434,24.5890256 C38.9423647,23.4879134 38.9482898,22.0733587 39,22.0884504 C39,22.0884504 38.2464315,21.8353745 37.4309184,22.1853854 Z" id="Path"></path>
                    <path d="M33,29.3711574 C34.8489444,31.5540541 37.1129767,27.3577467 36.9956196,27.2990392 C36.9956196,27.2990392 34.8402682,25.8390101 33,29.3711574 Z" id="Path"></path>
                    <path d="M29,32.755332 C29.7253395,34.2050115 31.1407517,34.2735096 32.1524371,33.5483746 C33.1920202,32.8716606 34,31.8063972 34,31.8063972 C33.9463101,31.7089645 32.0513738,29.5376931 29,32.755332 Z" id="Path"></path>
                    <path d="M29.8511192,34.1680919 C29.08329,33.919934 27.9151484,33.849882 26,34.6492985 C26.4060385,35.9413679 27.6413326,36.1208474 28.853722,35.9413679 C30.0775638,35.8003483 30.9744925,34.9981847 31,35.0467174 C31,35.0467174 30.644456,34.4533361 29.8511192,34.1680919 Z" id="Path"></path>
                    <path d="M22,36.2308629 C22.0082692,37.5579937 23.1951749,37.9564935 24.4868238,37.9984172 C25.7613831,38.0227599 27.0271218,37.7590468 26.9995578,37.7076565 C26.9995578,37.7081073 26.2514709,35.2508418 22,36.2308629 Z" id="Path"></path>
                    <path d="M25.6241485,33.8193658 C29.5156849,32.3341794 34.0639298,28.0343572 35.4841438,22.2453933 C36.9104472,16.4949928 35.2143406,10.3050682 32.4156009,7.00740066 C31.1265411,5.25375348 29.6866539,4.19721442 28.7343798,3.40419213 C28.393847,3.21038618 28.1240438,3.04772762 27.8795346,2.910778 C27.2354732,1.64856733 26.1337768,1.01227076 25.1988338,1.01227076 C24.1566252,0.936132713 23.4399605,1.23920171 23.4399605,1.23920171 C23.4399605,1.23920171 23.9266367,1.97091804 24.6981053,2.51723327 C25.4414693,2.95824069 26.3197349,3.42792347 27.6570407,3.35178542 C27.8884344,3.47736376 28.1502746,3.63310068 28.4687923,3.81800738 C28.8163513,4.10624428 29.2388556,4.44787671 29.6866539,4.83746621 C27.0752775,2.71252243 26.0377531,5.49996613 26.0822519,5.39614152 C26.0822519,5.39614152 26.6944615,5.81638401 27.471551,5.91279258 C28.1900893,6.1189586 29.1184746,6.1189586 29.8501285,4.97144941 C30.5560198,5.59736351 31.3232726,6.33600148 32.0525844,7.33172898 C32.1354927,7.42665434 32.2057539,7.5542103 32.2933463,7.6565517 C30.3040161,5.35016205 28.848203,7.46076814 28.848203,7.46076814 C28.9484424,7.37424763 30.5789718,9.81264287 32.5954697,8.07185016 C33.2545202,8.99341722 33.8339413,10.0845645 34.292513,11.291402 C33.0086058,8.5346113 30.961193,10.2585943 31.0398856,10.1972883 C31.0398856,10.1972883 31.3743292,10.8820364 32.0076172,11.3843498 C32.5298925,11.9118777 33.3247814,12.4057862 34.4958022,11.8031091 C34.7955836,12.6658422 35.0176091,13.5790044 35.1923254,14.5228196 C34.3445064,12.5531183 32.5387923,13.4188178 32.5387923,13.4188178 C32.6994563,13.384704 32.9336605,16.2655899 35.4120089,15.9175302 C35.514122,16.8751887 35.5244269,17.8590505 35.47056,18.8532948 C35.2326085,16.5711309 33.0924509,16.9384723 33.1650542,16.9384723 C33.1650542,16.9384723 33.1191502,17.7057856 33.4179947,18.4671661 C33.7070026,19.2166809 34.0718927,20.0255241 35.3829676,20.14072 C35.3014646,20.8012423 35.1852993,21.457315 35.0241668,22.1148709 C34.9459427,22.4169511 34.8302458,22.697772 34.742185,22.9899641 C34.8869232,22.0525761 34.5646583,21.4227068 34.1276333,21.0677255 C33.5688222,20.5757946 32.9064928,20.5090502 32.9064928,20.5090502 C33.0629412,20.5802442 31.9303298,23.3078652 34.3313909,24.2259714 C33.9510434,25.1707754 33.4746721,26.0473518 32.9467759,26.8725103 C33.8681351,24.6630236 31.8624106,23.9184528 31.8713104,23.9184528 C31.9303298,23.9753091 30.2197026,26.2802156 32.2970936,27.8657658 C31.8141646,28.5287601 31.2839263,29.1279764 30.74432,29.6871461 C31.5214094,28.1109896 30.0707488,27.0104487 30.1278946,27.0564282 C30.1278946,27.0564282 29.5775148,27.5626968 29.2805439,28.3339653 C29.0243246,29.0800193 28.756395,29.873536 29.4960118,30.8707468 C28.7039333,31.5406627 27.8757874,32.127519 27.0584148,32.5883025 C27.8359726,32.0217168 28.0345778,31.317687 27.9521379,30.7224259 C27.8884344,29.9516517 27.4589039,29.4211574 27.4589039,29.4211574 C27.5315072,29.5788719 24.9084206,30.6813904 25.989507,33.1084144 C25.8133855,33.1805972 25.6302378,33.2913435 25.4517743,33.3630319 C24.6807741,33.818377 23.86387,33.8964927 23.1472053,34.083377 C25.2597268,33.1647763 24.3402413,31.1990303 24.3402413,31.2079295 C24.3402413,31.2079295 21.5850635,31.6627802 22.0150624,34.3290952 C21.5400963,34.4141325 21.0904243,34.455168 20.6978981,34.4467631 C19.5161039,34.4808769 18.8430012,34.495709 18.8430012,34.495709 L18.8430012,34.4635728 C18.6710953,34.455168 18.5085576,34.455168 18.3005843,34.4472575 C17.9099318,34.4556624 17.4597914,34.4146269 16.9810781,34.3295896 C17.4101401,31.6627802 14.6568359,31.208424 14.6568359,31.208424 C14.6568359,31.1995247 13.7364136,33.1652707 15.8526824,34.0838714 C15.1378913,33.8969871 14.321924,33.8188714 13.5467082,33.3635263 C13.3649658,33.2918379 13.1841601,33.181586 13.0094438,33.1089088 C14.0909987,30.6818848 11.4707225,29.5793663 11.5409837,29.4216518 C11.5409837,29.4216518 11.1147322,29.9521461 11.0407236,30.7229203 C10.9667151,31.3181814 11.1653203,32.0227056 11.9400676,32.5887969 C11.1241003,32.1280134 10.2936124,31.5416515 9.49778661,30.8712412 C10.2434927,29.8740304 9.97603151,29.0805138 9.71840693,28.3344597 C9.42143605,27.5631912 8.87152467,27.0569226 8.87152467,27.0569226 C8.92773367,27.0109431 7.47707308,28.111484 8.25556772,29.6876405 C7.71034043,29.1284708 7.18431788,28.5292545 6.7018573,27.8662602 C8.78018505,26.28071 7.06627898,23.9758035 7.12576684,23.9189472 C7.13232455,23.9189472 5.13081577,24.663518 6.05639062,26.8730047 C5.52989966,26.0478462 5.04743909,25.1717642 4.66287585,24.2264658 C7.06581057,23.308854 5.9369465,20.5807386 6.09386329,20.5095446 C6.09386329,20.5095446 5.43481277,20.576289 4.87038074,21.0682199 C4.43569781,21.4232012 4.11249606,22.0530705 4.2609815,22.9904585 C4.16964188,22.6982664 4.04832412,22.4179399 3.97525242,22.1153653 C3.80943588,21.4578094 3.69889151,20.8017367 3.61364119,20.1412144 C4.92752655,20.0265129 5.29101142,19.2171754 5.58329821,18.4676605 C5.87980068,17.70628 5.8301494,16.9389667 5.8301494,16.9389667 C5.91352608,16.9389667 3.7658739,16.5711309 3.53166974,18.8537892 C3.47499233,17.8590505 3.48763935,16.8751887 3.59068919,15.9180246 C6.0662272,16.2660843 6.29762091,13.3851984 6.45969019,13.4193122 C6.45969019,13.4193122 4.65257087,12.5536127 3.80428338,14.523314 C3.97759447,13.5794988 4.20664614,12.6663366 4.50455383,11.8036035 C5.67323261,12.4062806 6.46858995,11.9123721 6.99742296,11.3848442 C7.62368489,10.8825308 7.9562548,10.1977827 7.9562548,10.1977827 C8.04150512,10.2590887 5.99221868,8.53510571 4.70409578,11.2918964 C5.16828843,10.0850589 5.74489909,8.99391162 6.40722846,8.07234457 C8.41951064,9.81313727 10.0491032,7.37474204 10.1535583,7.46126255 C10.1535583,7.46126255 8.698682,5.35065645 6.70607298,7.65704611 C6.79366533,7.5547047 6.86580021,7.42764315 6.94777167,7.33222338 C7.67661503,6.33600148 8.44386787,5.59736351 9.14929081,4.97194381 C9.88609711,6.119453 10.8121404,6.119453 11.5269315,5.91328698 C12.3030841,5.81687841 12.9124833,5.39663592 12.9124833,5.39663592 C12.962603,5.50046054 11.9227365,2.71252243 9.31089169,4.83796062 C9.76290572,4.44837111 10.1825996,4.10673869 10.5287533,3.81850178 C10.847271,3.63359508 11.1161374,3.47835257 11.3419102,3.35227982 C12.6820264,3.42841787 13.5542027,2.95824069 14.2985036,2.51772768 C15.0769982,1.97141244 15.5622692,1.23969611 15.5622692,1.23969611 C15.5622692,1.23969611 14.8395152,0.936627116 13.805738,1.01276517 C12.8656425,1.01276517 11.7625409,1.64906173 11.1222267,2.91127241 C10.8744387,3.04772762 10.6046355,3.21088058 10.2659763,3.40468653 C9.31042328,4.19770882 7.87334653,5.25424788 6.58241318,7.00789506 C3.78507864,10.3050682 2.08709845,16.4954872 3.5185543,22.2458877 C4.93221064,28.0348516 9.48139232,32.3346738 13.3729287,33.8198602 C14.2980352,34.3701307 15.2952765,34.3805131 16.1042177,34.6469963 C16.9211218,34.9060634 17.6593333,34.9678638 18.2687325,34.9545149 C18.4055078,34.9569869 18.5268255,34.9579758 18.6434592,34.9579758 C18.6935789,34.9826959 18.7511931,35 18.8177071,35 C18.8177071,35 19.5118883,34.9802239 20.7274079,34.9545149 C21.3414912,34.9678638 22.0782975,34.9060634 22.8937964,34.6469963 C23.7036744,34.3800187 24.707005,34.3696363 25.6241485,33.8193658 Z M26.9455284,32.6634518 C26.8804197,32.6931159 26.8148425,32.7282185 26.7413024,32.7628268 C26.8045375,32.7282185 26.8874458,32.6931159 26.9455284,32.6634518 Z" id="Shape" fill-rule="nonzero"></path>
                    <path d="M10.6740915,0 C10.6740915,0 9.56462277,0.46810921 8.73600608,1.19451682 C7.96263051,2.01608701 7.59246343,3.09595559 8.67302089,4 C12.0948722,2.00657075 10.7561787,0.0951625694 10.6740915,0 Z" id="Path"></path>
                    <path d="M5.22541106,7 C8.56931454,3.94367244 6.1616798,2.00611788 6.1580438,2.00611788 C5.99806002,1.82844281 2.06451933,5.56858214 5.22541106,7 Z" id="Path"></path>
                    <path d="M3.37173451,12 C4.97089431,8.29730011 3.0246923,7.04847284 2.92432662,7 C2.92432662,7 2.32436291,8.01792974 2.0522604,9.16459919 C1.87204825,10.3691233 2.12184727,11.6393203 3.37173451,12 Z" id="Path"></path>
                    <path d="M2.81803155,15.9981954 C3.65770546,11.6767758 1.31902836,10.981241 1.31902836,11.0012244 C1.11681025,10.9085234 0.203034333,16.1108798 2.81803155,15.9981954 Z" id="Path"></path>
                    <path d="M3,20.9097336 C2.79382137,16.9375075 0.118232904,16.9804667 0.0119877946,17.0039444 C0.0119877946,17.0039444 -0.078478338,18.1878196 0.23762716,19.2857765 C0.554258624,20.3927248 1.56200926,21.2943681 3,20.9097336 Z" id="Path"></path>
                    <path d="M4,25.642541 C3.23742753,23.4258054 2.33679385,22.5766082 1.56936767,22.1853854 C0.747472024,21.8353745 0,22.0884504 0,22.0884504 C0.0506943508,22.0733587 0.0506943508,23.487333 0.827288661,24.5890256 C1.56936767,25.6965227 2.64419577,26.49406 4,25.642541 Z" id="Path"></path>
                    <path d="M2.00445022,27.2990444 C1.88619546,27.3572423 4.14810308,31.5541325 6,29.3711983 C4.15769131,25.8389901 2.00445022,27.2990444 2.00445022,27.2990444 Z" id="Path"></path>
                    <path d="M10,32.755332 C6.94824321,29.5376931 5.05049442,31.7089645 5,31.8063972 C5,31.8063972 5.80791079,32.8716606 6.84515043,33.5483746 C7.85398696,34.2735096 9.27414265,34.2050115 10,32.755332 Z" id="Path"></path>
                    <path d="M9.14903596,34.1680919 C8.35278791,34.4533361 8,35.0467174 8,35.0467174 C8.02136529,34.9986425 8.92183429,35.8003483 10.149036,35.9413679 C11.3621678,36.1208474 12.6055237,35.9413679 13,34.6492985 C11.0849401,33.849882 9.91297551,33.919934 9.14903596,34.1680919 Z" id="Path"></path>
                    <path d="M12.000442,37.707732 C11.9728901,37.7586681 13.2380709,38.022364 14.5164766,37.9984736 C15.8009436,37.9565527 16.9917344,37.558079 17,36.2310352 C12.7498522,35.2506276 12.000442,37.707732 12.000442,37.707732 Z" id="Path"></path>
                </g>
            </g>
        </g>
    </g>
</svg>