<?xml version="1.0" encoding="UTF-8"?>
<svg width="22px" height="26px" viewBox="0 0 22 26" version="1.1" xmlns="http://www.w3.org/2000/svg" xmlns:xlink="http://www.w3.org/1999/xlink">
    <!-- Generator: Sketch 52.4 (67378) - http://www.bohemiancoding.com/sketch -->
    <title>Apple_logo_black Copy</title>
    <desc>Created with Sketch.</desc>
    <g id="Page-1" stroke="none" stroke-width="1" fill="none" fill-rule="evenodd">
        <g id="1440-новое--иви-обзор-кино-copy-5" transform="translate(-515.000000, -1287.000000)" fill="#FFFFFF" fill-rule="nonzero">
            <g id="Apple_logo_black-Copy" transform="translate(515.000000, 1287.000000)">
                <path d="M21.1521385,20.2482074 C20.7642441,21.1559613 20.3051033,21.9915435 19.7731333,22.7597669 C19.0480072,23.8070504 18.454291,24.5319711 17.9967334,24.9345268 C17.2874405,25.5952945 16.5274833,25.9336972 15.7136957,25.9529433 C15.129479,25.9529433 14.4249352,25.784543 13.604815,25.4429341 C12.7820035,25.102925 12.025846,24.9345268 11.3344432,24.9345268 C10.6093175,24.9345268 9.8316279,25.102925 8.99979176,25.4429341 C8.16668806,25.784543 7.49555139,25.9625664 6.98242179,25.9802083 C6.20204083,26.013888 5.4241937,25.6658622 4.64777034,24.9345268 C4.15221549,24.4966873 3.53237565,23.7461058 2.7898338,22.6827824 C1.99314578,21.5472897 1.33815777,20.2305655 0.825028383,18.7294036 C0.27548446,17.1079561 0,15.5378305 0,14.0177442 C0,12.2764927 0.371429052,10.7746892 1.11539532,9.5161828 C1.70008728,8.50530477 2.47793497,7.70789243 3.4514712,7.12250309 C4.4250083,6.53711462 5.47691559,6.23880686 6.60972688,6.21972115 C7.2295663,6.21972115 8.04240435,6.41394203 9.05251364,6.79564785 C10.0597735,7.17863661 10.7065287,7.37285748 10.9900873,7.37285748 C11.2020836,7.37285748 11.9205597,7.14575821 13.1385493,6.69300454 C14.2903598,6.27312817 15.2624712,6.09927506 16.0588428,6.16775748 C18.2168045,6.34417624 19.8380462,7.20590115 20.9162355,8.75838479 C18.9862614,9.94295573 18.0315651,11.6020923 18.0505638,13.7305024 C18.0679796,15.3883559 18.6616958,16.7679492 19.8285465,17.8633491 C20.3573497,18.3717546 20.9479001,18.764687 21.6049448,19.0437495 C21.4624548,19.4623425 21.3120466,19.863294 21.1521385,20.2482074 Z M16.2029186,0.519796676 C16.2029186,1.81921518 15.7342777,3.03247854 14.8001644,4.15546253 C13.6728939,5.49047083 12.3094049,6.2619009 10.8308131,6.14017231 C10.8119727,5.98428218 10.8010482,5.82021321 10.8010482,5.64780432 C10.8010482,4.40036393 11.3371348,3.06535629 12.2891397,1.97380619 C12.7644287,1.42113526 13.3689113,0.961596861 14.1019535,0.59501437 C14.833412,0.233901508 15.5252898,0.0341983177 16.1760025,0 C16.1950027,0.173711954 16.2029186,0.347434841 16.2029186,0.519779824 L16.2029186,0.519796676 Z" id="path4"></path>
            </g>
        </g>
    </g>
</svg>