<?xml version="1.0" encoding="UTF-8"?>
<svg width="29px" height="25px" viewBox="0 0 29 25" version="1.1" xmlns="http://www.w3.org/2000/svg" xmlns:xlink="http://www.w3.org/1999/xlink">
    <!-- Generator: Sketch 52.4 (67378) - http://www.bohemiancoding.com/sketch -->
    <title>child_care-24px</title>
    <desc>Created with Sketch.</desc>
    <g id="Page-1" stroke="none" stroke-width="1" fill="none" fill-rule="evenodd">
        <g id="1440-новое--иви-обзор-кино-copy-5" transform="translate(-768.000000, -367.000000)">
            <g id="child_care-24px" transform="translate(767.000000, 364.000000)">
                <polygon id="Path" points="0 0 31 0 31 31 0 31"></polygon>
                <circle id="Oval" fill="#000000" cx="18.7291667" cy="13.5625" r="1.61458333"></circle>
                <circle id="Oval" fill="#000000" cx="12.2708333" cy="13.5625" r="1.61458333"></circle>
                <path d="M20.7958333,18.0833333 L10.2041667,18.0833333 C9.95875,18.0833333 9.79083333,18.3416667 9.90708333,18.56125 C10.9791667,20.5891667 13.0845833,21.9583333 15.5,21.9583333 C17.9154167,21.9583333 20.0208333,20.5891667 21.0929167,18.56125 C21.19625,18.3416667 21.0283333,18.0833333 20.7958333,18.0833333 Z M29.6308333,14.6475 C29.3079167,12.6970833 27.8741667,11.1083333 26.00125,10.5529167 C25.3166667,9.10625 24.3479167,7.84041667 23.1725,6.79416667 C21.1316667,4.97291667 18.445,3.875 15.5,3.875 C12.555,3.875 9.86833333,4.97291667 7.8275,6.79416667 C6.63916667,7.84041667 5.67041667,9.11916667 4.99875,10.5529167 C3.12583333,11.1083333 1.69208333,12.6841667 1.36916667,14.6475 C1.3175,14.91875 1.29166667,15.2029167 1.29166667,15.5 C1.29166667,15.7970833 1.3175,16.08125 1.36916667,16.3525 C1.69208333,18.3029167 3.12583333,19.8916667 4.99875,20.4470833 C5.67041667,21.8808333 6.63916667,23.1466667 7.80166667,24.18 C9.8425,26.0141667 12.5420833,27.125 15.5,27.125 C18.4579167,27.125 21.1575,26.0141667 23.21125,24.18 C24.37375,23.1466667 25.3425,21.8679167 26.0141667,20.4470833 C27.8741667,19.8916667 29.3079167,18.3158333 29.6308333,16.3525 C29.6825,16.08125 29.7083333,15.7970833 29.7083333,15.5 C29.7083333,15.2029167 29.6825,14.91875 29.6308333,14.6475 Z M24.5416667,18.0833333 C24.4125,18.0833333 24.29625,18.0575 24.1670833,18.0445833 C23.90875,18.91 23.5341667,19.7108333 23.05625,20.4470833 C21.4416667,22.9141667 18.6645833,24.5416667 15.5,24.5416667 C12.3354167,24.5416667 9.55833333,22.9141667 7.94375,20.4470833 C7.46583333,19.7108333 7.09125,18.91 6.83291667,18.0445833 C6.70375,18.0575 6.5875,18.0833333 6.45833333,18.0833333 C5.0375,18.0833333 3.875,16.9208333 3.875,15.5 C3.875,14.0791667 5.0375,12.9166667 6.45833333,12.9166667 C6.5875,12.9166667 6.70375,12.9425 6.83291667,12.9554167 C7.09125,12.09 7.46583333,11.2891667 7.94375,10.5529167 C9.55833333,8.08583333 12.3354167,6.45833333 15.5,6.45833333 C18.6645833,6.45833333 21.4416667,8.08583333 23.05625,10.5529167 C23.5341667,11.2891667 23.90875,12.09 24.1670833,12.9554167 C24.29625,12.9425 24.4125,12.9166667 24.5416667,12.9166667 C25.9625,12.9166667 27.125,14.0791667 27.125,15.5 C27.125,16.9208333 25.9625,18.0833333 24.5416667,18.0833333 Z" id="Shape" fill="#000000" fill-rule="nonzero"></path>
            </g>
        </g>
    </g>
</svg>