<?xml version="1.0" encoding="UTF-8"?>
<svg width="16px" height="16px" viewBox="0 0 16 16" version="1.1" xmlns="http://www.w3.org/2000/svg" xmlns:xlink="http://www.w3.org/1999/xlink">
    <!-- Generator: Sketch 52.4 (67378) - http://www.bohemiancoding.com/sketch -->
    <title>Без названия Copy 22</title>
    <desc>Created with Sketch.</desc>
    <g id="Page-1" stroke="none" stroke-width="1" fill="none" fill-rule="evenodd">
        <g id="1440-новое--иви-обзор-кино-copy-5" transform="translate(-601.000000, -264.000000)" fill="#000000">
            <g id="Без-названия-Copy-22" transform="translate(601.000000, 264.000000)">
                <path d="M2.552152,3.2 C2.453712,2.943064 2.4,2.665136 2.4,2.375 C2.4,1.063376 3.499416,0 4.855856,0 C5.7332,0 7.125784,1.047264 8,2.141896 C8.87424,1.047264 10.26696,0 11.14416,0 C12.50056,0 13.6,1.063376 13.6,2.375 C13.6,2.665136 13.54632,2.943064 13.44784,3.2 L14.4,3.2 C15.2836,3.2 16,3.916312 16,4.8 L16,7.2 C16,7.797656 15.67224,8.31872 15.18672,8.59344 C15.19552,8.66104 15.2,8.73 15.2,8.8 L15.2,14.4 C15.2,15.28368 14.4836,16 13.6,16 L2.4,16 C1.516408,16 0.8,15.28368 0.8,14.4 L0.8,8.8 C0.8,8.77152 0.800784,8.74304 0.802152,8.71488 C0.804296,8.67392 0.808008,8.63352 0.81328,8.59344 C0.3277344,8.31872 0,7.797656 0,7.2 L0,4.8 C0,3.916312 0.7164064,3.2 1.6,3.2 L2.552152,3.2 Z M9.20432,3.198832 C9.4168,3.202248 9.64984,3.197752 9.9012,3.189256 C10.01072,3.185544 10.12992,3.180664 10.25296,3.175584 C10.55392,3.16328 10.87872,3.15 11.14416,3.15 C11.66776,3.15 12,2.753024 12,2.375 C12,2.003808 11.67952,1.614256 11.17224,1.600392 C11.16992,1.6042 11.03904,1.630472 10.7676,1.790336 C10.46312,1.969528 10.11168,2.240624 9.77576,2.565528 C9.5572,2.776952 9.36312,2.993656 9.20432,3.198832 Z M6.625192,4.8 L1.6,4.8 L1.6,7.2 L7.2,7.2 L7.2,4.8 L6.664256,4.8 C6.651368,4.8 6.63828,4.8 6.625192,4.8 Z M8.8,4.8 L14.4,4.8 L14.4,7.2 L8.8,7.2 L8.8,4.8 Z M7.2,8.8 L2.4,8.8 L2.4,14.4 L7.2,14.4 L7.2,8.8 Z M8.8,14.4 L8.8,8.8 L13.6,8.8 L13.6,14.4 L8.8,14.4 Z M6.098832,3.189256 C6.350192,3.197752 6.5832,3.202248 6.795704,3.198832 C6.636912,2.993656 6.442776,2.776952 6.224216,2.565528 C5.88828,2.240624 5.536912,1.969528 5.232424,1.790336 C5.006832,1.65752 4.87832,1.616896 4.84004,1.604784 C4.832224,1.602344 4.827736,1.600392 4.827736,1.600392 C4.320504,1.614256 4,2.003808 4,2.375 C4,2.753024 4.332224,3.15 4.855856,3.15 C5.121288,3.15 5.446096,3.16328 5.747072,3.175584 C5.87012,3.180664 5.989256,3.185544 6.098832,3.189256 Z" id="Shape"></path>
            </g>
        </g>
    </g>
</svg>