<?xml version="1.0" encoding="UTF-8"?>
<svg width="18px" height="16px" viewBox="0 0 18 16" version="1.1" xmlns="http://www.w3.org/2000/svg" xmlns:xlink="http://www.w3.org/1999/xlink">
    <!-- Generator: Sketch 52.4 (67378) - http://www.bohemiancoding.com/sketch -->
    <title>event_seat-24px copy</title>
    <desc>Created with Sketch.</desc>
    <g id="Page-1" stroke="none" stroke-width="1" fill="none" fill-rule="evenodd">
        <g id="1440-новое--иви-обзор-кино-copy-5" transform="translate(-856.000000, -808.000000)">
            <g id="event_seat-24px-copy" transform="translate(855.000000, 806.000000)">
                <polygon id="Path" points="0 0 20 0 20 20 0 20"></polygon>
                <path d="M4.58333333,17.5 C5.275,17.5 5.83333333,16.9416667 5.83333333,16.25 L5.83333333,15 L14.1666667,15 L14.1666667,16.25 C14.1666667,16.9416667 14.725,17.5 15.4166667,17.5 C16.1083333,17.5 16.6666667,16.9416667 16.6666667,16.25 L16.6666667,14.1666667 C16.6666667,13.25 15.9166667,12.5 15,12.5 L5,12.5 C4.08333333,12.5 3.33333333,13.25 3.33333333,14.1666667 L3.33333333,16.25 C3.33333333,16.9416667 3.89166667,17.5 4.58333333,17.5 Z M16.6666667,8.33333333 L17.5,8.33333333 C17.9583333,8.33333333 18.3333333,8.70833333 18.3333333,9.16666667 L18.3333333,10 C18.3333333,10.4583333 17.9583333,10.8333333 17.5,10.8333333 L16.6666667,10.8333333 C16.2083333,10.8333333 15.8333333,10.4583333 15.8333333,10 L15.8333333,9.16666667 C15.8333333,8.70833333 16.2083333,8.33333333 16.6666667,8.33333333 Z M2.5,8.33333333 L3.33333333,8.33333333 C3.79166667,8.33333333 4.16666667,8.70833333 4.16666667,9.16666667 L4.16666667,10 C4.16666667,10.4583333 3.79166667,10.8333333 3.33333333,10.8333333 L2.5,10.8333333 C2.04166667,10.8333333 1.66666667,10.4583333 1.66666667,10 L1.66666667,9.16666667 C1.66666667,8.70833333 2.04166667,8.33333333 2.5,8.33333333 Z M14.1666667,10.8333333 L5.83333333,10.8333333 L5.83333333,4.16666667 C5.83333333,3.25 6.58333333,2.5 7.5,2.5 L12.5,2.5 C13.4166667,2.5 14.1666667,3.25 14.1666667,4.16666667 L14.1666667,10.8333333 Z" id="Shape" fill="#000000" fill-rule="nonzero"></path>
            </g>
        </g>
    </g>
</svg>