<?xml version="1.0" encoding="UTF-8"?>
<svg width="20px" height="14px" viewBox="0 0 20 14" version="1.1" xmlns="http://www.w3.org/2000/svg" xmlns:xlink="http://www.w3.org/1999/xlink">
    <!-- Generator: Sketch 52.4 (67378) - http://www.bohemiancoding.com/sketch -->
    <title>devices-24px copy 2</title>
    <desc>Created with Sketch.</desc>
    <g id="Page-1" stroke="none" stroke-width="1" fill="none" fill-rule="evenodd">
        <g id="1440-новое--иви-обзор-кино-copy-5" transform="translate(-855.000000, -997.000000)">
            <g id="devices-24px-copy-2" transform="translate(855.000000, 994.000000)">
                <polygon id="Path" points="0 0 20 0 20 20 0 20"></polygon>
                <path d="M3.33333333,5.83333333 C3.33333333,5.375 3.70833333,5 4.16666667,5 L17.5,5 C17.9583333,5 18.3333333,4.625 18.3333333,4.16666667 C18.3333333,3.70833333 17.9583333,3.33333333 17.5,3.33333333 L3.33333333,3.33333333 C2.41666667,3.33333333 1.66666667,4.08333333 1.66666667,5 L1.66666667,14.1666667 L1.25,14.1666667 C0.558333333,14.1666667 0,14.725 0,15.4166667 C0,16.1083333 0.558333333,16.6666667 1.25,16.6666667 L11.6666667,16.6666667 L11.6666667,14.1666667 L3.33333333,14.1666667 L3.33333333,5.83333333 Z M19.1666667,6.66666667 L14.1666667,6.66666667 C13.7083333,6.66666667 13.3333333,7.04166667 13.3333333,7.5 L13.3333333,15.8333333 C13.3333333,16.2916667 13.7083333,16.6666667 14.1666667,16.6666667 L19.1666667,16.6666667 C19.625,16.6666667 20,16.2916667 20,15.8333333 L20,7.5 C20,7.04166667 19.625,6.66666667 19.1666667,6.66666667 Z M18.3333333,14.1666667 L15,14.1666667 L15,8.33333333 L18.3333333,8.33333333 L18.3333333,14.1666667 Z" id="Shape" fill="#000000" fill-rule="nonzero"></path>
            </g>
        </g>
    </g>
</svg>