<?xml version="1.0" encoding="UTF-8"?>
<svg width="19px" height="21px" viewBox="0 0 19 21" version="1.1" xmlns="http://www.w3.org/2000/svg" xmlns:xlink="http://www.w3.org/1999/xlink">
    <!-- Generator: Sketch 52.4 (67378) - http://www.bohemiancoding.com/sketch -->
    <title>publish-24px</title>
    <desc>Created with Sketch.</desc>
    <g id="Page-1" stroke="none" stroke-width="1" fill="none" fill-rule="evenodd">
        <g id="1440-новое--иви-обзор-кино-copy-5" transform="translate(-1118.000000, -369.000000)">
            <g id="publish-24px" transform="translate(1127.500000, 379.500000) rotate(-180.000000) translate(-1127.500000, -379.500000) translate(1112.000000, 364.000000)">
                <polygon id="Path" points="0 0 31 0 31 31 0 31"></polygon>
                <path d="M6.45833333,6.45833333 C6.45833333,7.16875 7.03958333,7.75 7.75,7.75 L23.25,7.75 C23.9604167,7.75 24.5416667,7.16875 24.5416667,6.45833333 C24.5416667,5.74791667 23.9604167,5.16666667 23.25,5.16666667 L7.75,5.16666667 C7.03958333,5.16666667 6.45833333,5.74791667 6.45833333,6.45833333 Z M9.57125,18.0833333 L11.625,18.0833333 L11.625,24.5416667 C11.625,25.2520833 12.20625,25.8333333 12.9166667,25.8333333 L18.0833333,25.8333333 C18.79375,25.8333333 19.375,25.2520833 19.375,24.5416667 L19.375,18.0833333 L21.42875,18.0833333 C22.5783333,18.0833333 23.1595833,16.6883333 22.3458333,15.8745833 L16.4170833,9.94583333 C15.9133333,9.44208333 15.0995833,9.44208333 14.5958333,9.94583333 L8.66708333,15.8745833 C7.85333333,16.6883333 8.42166667,18.0833333 9.57125,18.0833333 Z" id="Shape" fill="#000000" fill-rule="nonzero"></path>
            </g>
        </g>
    </g>
</svg>