<?xml version="1.0" encoding="UTF-8"?>
<svg width="22px" height="14px" viewBox="0 0 22 14" version="1.1" xmlns="http://www.w3.org/2000/svg" xmlns:xlink="http://www.w3.org/1999/xlink">
    <!-- Generator: Sketch 63 (92445) - https://sketch.com -->
    <title>фильтр</title>
    <desc>Created with Sketch.</desc>
    <g id="каталог" stroke="none" stroke-width="1" fill="none" fill-rule="evenodd">
        <g id="iPhone-8-каталог-Copy-2" transform="translate(-16.000000, -325.000000)">
            <g id="фильтр" transform="translate(15.000000, 320.000000)">
                <path d="M21.92,14.77 L14.92,14.77 C14.5373623,13.4305002 13.3130798,12.5069714 11.92,12.5069714 C10.5269202,12.5069714 9.30263769,13.4305002 8.92,14.77 L2.08,14.77 C1.59398942,14.77 1.2,15.1639894 1.2,15.65 C1.2,16.1360106 1.59398942,16.53 2.08,16.53 L8.91,16.53 C9.30495891,17.8573066 10.5251768,18.7673074 11.91,18.7673074 C13.2948232,18.7673074 14.5150411,17.8573066 14.91,16.53 L21.91,16.53 C22.1442102,16.5327079 22.3696184,16.4408637 22.535241,16.275241 C22.7008637,16.1096184 22.7927079,15.8842102 22.7900582,15.65 C22.7796416,15.1722024 22.397648,14.7858181 21.92,14.77 L21.92,14.77 Z M13.28,15.65 C13.28,16.4066301 12.6666301,17.02 11.91,17.02 C11.1533699,17.02 10.54,16.4066301 10.54,15.65 C10.54,14.8933699 11.1533699,14.28 11.91,14.28 C12.6621338,14.2907464 13.2692536,14.8978662 13.28,15.65 L13.28,15.65 Z" id="Shape" fill="#000000" fill-rule="nonzero"></path>
                <path d="M4.35,11.48 C5.73833414,11.4783374 6.95967035,10.5623352 7.35,9.23 L21.9,9.23 C22.3860106,9.23 22.78,8.83601058 22.78,8.35 C22.78,7.86398942 22.3860106,7.47 21.9,7.47 L7.35,7.47 C6.90087018,5.91785239 5.34406888,4.96268165 3.75686526,5.26544303 C2.16966164,5.5682044 1.07378148,7.02937794 1.22754758,8.6378666 C1.38131367,10.2463553 2.73418195,11.4734367 4.35,11.47 L4.35,11.48 Z M3,8.35 C3.00005924,7.79407942 3.33605451,7.293309 3.85044805,7.08248446 C4.36484158,6.87165991 4.9556387,6.99258384 5.34583296,7.38855876 C5.73602722,7.78453367 5.84825035,8.37704512 5.62988441,8.88828284 C5.41151846,9.39952056 4.90586134,9.72811563 4.35,9.72 C3.60345907,9.70378537 3.00523493,9.09669865 3,8.35 L3,8.35 Z" id="Shape" fill="#000000" fill-rule="nonzero"></path>
                <rect id="Rectangle" x="0" y="0" width="24" height="24"></rect>
            </g>
        </g>
    </g>
</svg>