<?xml version="1.0" encoding="UTF-8"?>
<svg width="16px" height="16px" viewBox="0 0 16 16" version="1.1" xmlns="http://www.w3.org/2000/svg" xmlns:xlink="http://www.w3.org/1999/xlink">
    <!-- Generator: Sketch 60.1 (88133) - https://sketch.com -->
    <title>Group 3</title>
    <desc>Created with Sketch.</desc>
    <g id="рейтинг" stroke="none" stroke-width="1" fill="none" fill-rule="evenodd">
        <g id="Group-3">
            <g id="Laurel-wreath-" fill="#F8E71C">
                <path d="M12.4414894,1.68421053 C12.8847909,1.30356025 12.7337087,0.848878739 12.4167322,0.502954452 C12.0749985,0.196907813 11.6225982,0 11.6225982,0 C11.5866262,0.0400684503 11.0379479,0.844871894 12.4414894,1.68421053 Z" id="Path"></path>
                <path d="M13.4726189,0.844666223 C13.4716234,0.844666223 12.4845919,1.66048449 13.8568793,2.94736842 C15.1525136,2.34488386 13.539317,0.770077125 13.4726189,0.844666223 Z" id="Path"></path>
                <path d="M15.1584625,3.85877861 C15.0469254,3.37597042 14.8019096,2.94736842 14.8019096,2.94736842 C14.7598547,2.96755858 13.9604448,3.49360005 14.6165021,5.05263158 C15.1301211,4.900547 15.2312359,4.3657272 15.1584625,3.85877861 Z" id="Path"></path>
                <path d="M14.8442136,6.73608227 C15.9169312,6.78352834 15.541709,4.5930625 15.4585299,4.63209449 C15.4585299,4.6236804 14.4988554,4.91653718 14.8442136,6.73608227 Z" id="Path"></path>
                <path d="M15.9953612,7.15955554 C15.9499409,7.1496702 14.8535827,7.13158212 14.7692308,8.80409834 C15.3562334,8.96604974 15.7732345,8.58641043 15.9021415,8.12032693 C16.0314811,7.65802931 15.9953612,7.15955554 15.9953612,7.15955554 Z" id="Path"></path>
                <path d="M15.3562742,9.3412149 C15.0409303,9.50594028 14.6721084,9.863497 14.3589744,10.7968594 C14.9147486,11.1553937 15.3562742,10.8195885 15.659464,10.3532739 C15.9763547,9.88964777 15.9787856,9.29404576 16,9.30040016 C16,9.30040016 15.6908437,9.1938419 15.3562742,9.3412149 Z" id="Path"></path>
                <path d="M13.5384615,12.3668031 C14.2970028,13.2859175 15.2258366,11.5190512 15.1776901,11.4943323 C15.1776901,11.4943323 14.2934434,10.8795832 13.5384615,12.3668031 Z" id="Path"></path>
                <path d="M11.8974359,13.7917187 C12.1950111,14.4021101 12.775693,14.4309514 13.1907434,14.1256314 C13.6172391,13.8406992 13.9487179,13.3921672 13.9487179,13.3921672 C13.9266913,13.351143 13.1492816,12.4369234 11.8974359,13.7917187 Z" id="Path"></path>
                <path d="M12.246613,14.386565 C11.9316061,14.2820775 11.4523686,14.2525819 10.6666667,14.5891783 C10.8332466,15.1332075 11.3400339,15.2087779 11.8374244,15.1332075 C12.3395133,15.0738308 12.7074841,14.7360778 12.7179487,14.7565126 C12.7179487,14.7565126 12.5720845,14.5066678 12.246613,14.386565 Z" id="Path"></path>
                <path d="M9.02564103,15.2551002 C9.02903352,15.8138921 9.5159692,15.9816815 10.0458764,15.9993335 C10.5687725,16.0095831 11.08805,15.898546 11.0767417,15.876908 C11.0767417,15.8770978 10.7698342,14.8424597 9.02564103,15.2551002 Z" id="Path"></path>
                <path d="M10.5124712,14.239733 C12.1089989,13.6143913 13.9749455,11.8039399 14.5575975,9.36648138 C15.1427476,6.94526014 14.446909,4.33897608 13.298708,2.95048449 C12.769863,2.21210673 12.1791401,1.76724818 11.7884635,1.43334405 C11.6487577,1.35174155 11.5380692,1.28325373 11.4377578,1.22559074 C11.1735275,0.694133613 10.7215494,0.426219269 10.3379831,0.426219269 C9.91041035,0.394161142 9.61639405,0.52176914 9.61639405,0.52176914 C9.61639405,0.52176914 9.8160561,0.829860227 10.132556,1.05988769 C10.4375259,1.24557503 10.79784,1.4433362 11.3464782,1.41127807 C11.441409,1.46415316 11.5488306,1.5297266 11.6795045,1.60758205 C11.8220928,1.72894496 11.9954279,1.87279019 12.1791401,2.03682788 C11.1078062,1.14211471 10.6821551,2.31577521 10.700411,2.27205959 C10.700411,2.27205959 10.951574,2.44900379 11.2703799,2.48959688 C11.5651649,2.57640362 11.9460409,2.57640362 12.2462065,2.09324185 C12.535803,2.35678464 12.8505734,2.6677901 13.1497782,3.08704378 C13.1837919,3.12701235 13.212617,3.18072013 13.2485523,3.22381124 C12.4324169,2.25269981 11.8351602,3.14137606 11.8351602,3.14137606 C11.8762841,3.10494637 12.5452192,4.1316391 13.3725004,3.39867375 C13.6428801,3.78670199 13.8805913,4.24613241 14.0687233,4.75427454 C13.5419921,3.59352055 12.7020279,4.31940813 12.734312,4.29359509 C12.734312,4.29359509 12.8715197,4.58191006 13.1313301,4.79341043 C13.3455969,5.01552745 13.6717052,5.22348894 14.152124,4.96973013 C14.2751112,5.33298617 14.3661986,5.71747552 14.4378771,6.11487139 C14.0900539,5.28552349 13.3492481,5.65002856 13.3492481,5.65002856 C13.4151616,5.63566485 13.5112453,6.84866942 14.5280037,6.70211799 C14.5698962,7.1053426 14.5741239,7.51960022 14.5520246,7.93822939 C14.4544035,6.97731827 13.5763901,7.13198832 13.6061761,7.13198832 C13.6061761,7.13198832 13.5873437,7.45506762 13.7099465,7.77564889 C13.8285139,8.09123408 13.9782124,8.43179964 14.5160893,8.48030317 C14.4826521,8.75841782 14.4349946,9.03465895 14.368889,9.31152459 C14.336797,9.43871625 14.2893316,9.55695661 14.2532041,9.67998488 C14.3125839,9.28529522 14.1803726,9.02008708 14.0010803,8.87062127 C13.7718245,8.66349246 13.5000996,8.63538956 13.5000996,8.63538956 C13.5642836,8.66536599 13.0996225,9.81383797 14.0846732,10.200409 C13.9286332,10.5982212 13.7331988,10.967306 13.516626,11.3147412 C13.8946195,10.384431 13.0717582,10.0709275 13.0754094,10.0709275 C13.0996225,10.094867 12.3978267,11.0653539 13.2500897,11.732954 C13.051965,12.0121095 12.8344313,12.2644111 12.6130543,12.499851 C12.9318603,11.8362062 12.3367174,11.3728205 12.3601619,11.3921803 C12.3601619,11.3921803 12.134365,11.605346 12.0125308,11.9300907 C11.9074152,12.2442187 11.7974954,12.578331 12.1009279,12.9982092 C11.7759726,13.280279 11.4362205,13.5273764 11.1008881,13.7213905 C11.4198862,13.4828281 11.5013652,13.1863945 11.4675438,12.9357583 C11.441409,12.6112218 11.2651914,12.3878557 11.2651914,12.3878557 C11.2949773,12.4542619 10.2188392,12.9184802 10.6623619,13.940385 C10.5901069,13.9707778 10.5149694,14.0174078 10.4417535,14.0475924 C10.1254458,14.2393166 9.79030565,14.2722074 9.49628935,14.3508956 C10.3629649,13.9641164 9.98574002,13.1364338 9.98574002,13.1401809 C9.98574002,13.1401809 8.85541067,13.3316969 9.03182045,14.4543559 C8.83696259,14.4901611 8.65248177,14.5074391 8.49144539,14.5039003 C8.00660674,14.518264 7.73046201,14.5245091 7.73046201,14.5245091 L7.73046201,14.510978 C7.65993653,14.5074391 7.5932544,14.5074391 7.50793203,14.5041084 C7.34766432,14.5076473 7.16299133,14.4903692 6.96659613,14.4545641 C7.14262157,13.3316969 6.0130609,13.140389 6.0130609,13.140389 C6.0130609,13.136642 5.63545172,13.9643245 6.50366457,14.3511037 C6.21041694,14.2724156 5.87566112,14.2395248 5.55762387,14.0478006 C5.48306288,14.017616 5.40888622,13.9711941 5.33720773,13.9405932 C5.78092253,12.9186884 4.70593743,12.45447 4.73476256,12.3880639 C4.73476256,12.3880639 4.55989012,12.6114299 4.52952765,12.9359664 C4.49916518,13.1866027 4.58064421,13.4832445 4.89848928,13.7215987 C4.56373347,13.5275846 4.22302045,13.2806954 3.89652784,12.9984173 C4.20245853,12.5785391 4.09273088,12.2444268 3.98703874,11.9302988 C3.86520453,11.6055542 3.63959987,11.3923885 3.63959987,11.3923885 C3.66265997,11.3730287 3.06751716,11.8364143 3.38689958,12.5000592 C3.16321659,12.2646193 2.94741246,12.0123177 2.74947992,11.7331622 C3.6021272,11.0655621 2.89898625,10.0950752 2.92339152,10.0711357 C2.92608187,10.0711357 2.10495006,10.3846392 2.48467308,11.3149493 C2.26867679,10.9675142 2.07074424,10.5986376 1.91297471,10.2006172 C2.89879408,9.81425431 2.43567036,8.66557416 2.50004648,8.63559773 C2.50004648,8.63559773 2.22966678,8.66370063 1.99810492,8.87082944 C1.81977346,9.02029525 1.68717787,9.28550339 1.74809498,9.68019305 C1.71062231,9.55716478 1.66085092,9.43913259 1.63087279,9.31173276 C1.56284549,9.03486712 1.51749395,8.75862599 1.48251946,8.48051134 C2.02154936,8.43221598 2.17067135,8.09144225 2.29058388,7.77585706 C2.41222592,7.45527579 2.39185616,7.13219649 2.39185616,7.13219649 C2.42606198,7.13219649 1.54497391,6.97731827 1.44889015,7.93843756 C1.42563788,7.51960022 1.4308264,7.1053426 1.47310326,6.70232616 C2.48870859,6.84887759 2.58363935,5.63587302 2.65012931,5.65023673 C2.65012931,5.65023673 1.90874702,5.28573166 1.56073164,6.11507956 C1.63183363,5.71768369 1.72580354,5.33319434 1.84802209,4.9699383 C2.32748005,5.22369711 2.65378049,5.01573562 2.87073762,4.7936186 C3.1276656,4.58211823 3.26410453,4.29380326 3.26410453,4.29380326 C3.29907902,4.3196163 2.45834613,3.59372872 1.92988545,4.75448271 C2.12032346,4.24634058 2.35688168,3.78691016 2.62860655,3.39888192 C3.45415821,4.13184727 4.12270901,3.10515454 4.16556237,3.14158423 C4.16556237,3.14158423 3.56869005,2.25290798 2.75120943,3.22401941 C2.78714475,3.1809283 2.81673855,3.12742869 2.85036787,3.08725195 C3.14938053,2.6677901 3.46415092,2.35678464 3.75355521,2.09345002 C4.05583471,2.57661179 4.4357499,2.57661179 4.72899753,2.48980505 C5.04741911,2.44921196 5.29742905,2.27226776 5.29742905,2.27226776 C5.31799098,2.31598338 4.89137909,1.14211471 3.819853,2.03703605 C4.00529466,1.87299836 4.17747675,1.72915313 4.31948855,1.60779022 C4.45016246,1.52993477 4.56046662,1.4645695 4.65309136,1.41148624 C5.20288263,1.44354437 5.56069856,1.24557503 5.86605274,1.06009586 C6.18543516,0.830068397 6.38452071,0.52197731 6.38452071,0.52197731 C6.38452071,0.52197731 6.08800623,0.394369312 5.66389251,0.426427439 C5.2782123,0.426427439 4.82565779,0.694341783 4.5629648,1.22579891 C4.46130818,1.28325373 4.35061969,1.35194972 4.21168257,1.43355222 C3.81966083,1.76745635 3.23009088,2.2123149 2.7004772,2.95069266 C1.55285278,4.33897608 0.85624552,6.94546831 1.44350946,9.36668955 C2.02347103,11.804148 3.88980198,13.6145995 5.48632973,14.2399411 C5.86586058,14.471634 6.27498522,14.4760055 6.60685853,14.588209 C6.94199868,14.6972899 7.24485469,14.7233111 7.49486464,14.7176905 C7.55097755,14.7187313 7.60074894,14.7191477 7.64859865,14.7191477 C7.66916057,14.7295562 7.69279718,14.7368421 7.72008497,14.7368421 C7.72008497,14.7368421 8.00487723,14.7285153 8.50355194,14.7176905 C8.75548356,14.7233111 9.05776307,14.6972899 9.39232672,14.588209 C9.72458436,14.4757974 10.1362072,14.4714258 10.5124712,14.239733 Z M11.0545758,13.7530323 C11.0278645,13.7655225 11.000961,13.7803025 10.9707907,13.7948744 C10.9967333,13.7803025 11.030747,13.7655225 11.0545758,13.7530323 Z" id="Shape" fill-rule="nonzero"></path>
                <path d="M4.37911445,0 C4.37911445,0 3.9239478,0.197098615 3.5840025,0.502954452 C3.26672021,0.848878739 3.11485679,1.30356025 3.55816242,1.68421053 C4.96199886,0.844871894 4.41279127,0.0400684503 4.37911445,0 Z" id="Path"></path>
                <path d="M2.14375838,2.94736842 C3.51561622,1.66049366 2.52786863,0.844681212 2.52637694,0.844681212 C2.46074257,0.769870656 0.846982289,2.34466616 2.14375838,2.94736842 Z" id="Path"></path>
                <path d="M1.3832757,5.05263158 C2.03934125,3.49360005 1.24089941,2.96777804 1.19972374,2.94736842 C1.19972374,2.94736842 0.953584782,3.37597042 0.841952986,3.85877861 C0.768019796,4.36594666 0.870501445,4.90076646 1.3832757,5.05263158 Z" id="Path"></path>
                <path d="M1.15611551,6.73608227 C1.50059711,4.91653718 0.541139842,4.6236804 0.541139842,4.63209449 C0.458178562,4.5930625 0.0832961364,6.78352834 1.15611551,6.73608227 Z" id="Path"></path>
                <path d="M1.23076923,8.80409834 C1.14618313,7.13158212 0.0485058067,7.1496702 0.00491806958,7.15955554 C0.00491806958,7.15955554 -0.0321962412,7.65802931 0.0974880657,8.12032693 C0.227388154,8.58641043 0.640824314,8.96604974 1.23076923,8.80409834 Z" id="Path"></path>
                <path d="M1.64102564,10.7968594 C1.3281754,9.863497 0.958684657,9.50594028 0.643843146,9.3412149 C0.306655189,9.1938419 0,9.30040016 0,9.30040016 C0.0207976824,9.29404576 0.0207976824,9.88940337 0.339400476,10.3532739 C0.643843146,10.8195885 1.08479826,11.1553937 1.64102564,10.7968594 Z" id="Path"></path>
                <path d="M0.822338551,11.4943345 C0.773823778,11.5188389 1.70178588,13.2859505 2.46153846,12.3668203 C1.70571951,10.8795748 0.822338551,11.4943345 0.822338551,11.4943345 Z" id="Path"></path>
                <path d="M4.1025641,13.7917187 C2.85056132,12.4369234 2.07199771,13.351143 2.05128205,13.3921672 C2.05128205,13.3921672 2.38273263,13.8406992 2.80826684,14.1256314 C3.22214849,14.4309514 3.80477647,14.4021101 4.1025641,13.7917187 Z" id="Path"></path>
                <path d="M3.75345065,14.386565 C3.42678478,14.5066678 3.28205128,14.7565126 3.28205128,14.7565126 C3.29081653,14.7362705 3.66023971,15.0738308 4.16370706,15.1332075 C4.66140217,15.2087779 5.17149691,15.1332075 5.33333333,14.5891783 C4.54766772,14.2525819 4.06686175,14.2820775 3.75345065,14.386565 Z" id="Path"></path>
                <path d="M4.92325824,15.8769398 C4.91195492,15.8983866 5.43100345,16.0094164 5.95547757,15.9993573 C6.48243842,15.9817064 6.97096798,15.813928 6.97435897,15.2551727 C5.23070859,14.8423695 4.92325824,15.8769398 4.92325824,15.8769398 Z" id="Path"></path>
            </g>
            <text id="1" font-family="Helvetica-Bold, Helvetica" font-size="9.26315789" font-weight="bold" fill="#FFFFFF">
                <tspan x="5.42413651" y="11">1</tspan>
            </text>
        </g>
    </g>
</svg>