<?xml version="1.0" encoding="UTF-8"?>
<svg width="137px" height="84px" viewBox="0 0 137 84" version="1.1" xmlns="http://www.w3.org/2000/svg" xmlns:xlink="http://www.w3.org/1999/xlink">
    <!-- Generator: Sketch 52.4 (67378) - http://www.bohemiancoding.com/sketch -->
    <title>Group 6</title>
    <desc>Created with Sketch.</desc>
    <defs>
        <path d="M6,0 L44,8.8817842e-16 C47.3137085,2.79460044e-16 50,2.6862915 50,6 L50,42.8832561 L50,44 C50,47.3137085 47.3137085,50 44,50 L6,50 C2.6862915,50 4.05812251e-16,47.3137085 0,44 L0,6 C-4.05812251e-16,2.6862915 2.6862915,6.08718376e-16 6,0 Z" id="path-1"></path>
        <filter x="-10.0%" y="-10.0%" width="120.0%" height="120.0%" filterUnits="objectBoundingBox" id="filter-2">
            <feGaussianBlur stdDeviation="5" in="SourceAlpha" result="shadowBlurInner1"></feGaussianBlur>
            <feOffset dx="0" dy="0" in="shadowBlurInner1" result="shadowOffsetInner1"></feOffset>
            <feComposite in="shadowOffsetInner1" in2="SourceAlpha" operator="arithmetic" k2="-1" k3="1" result="shadowInnerInner1"></feComposite>
            <feColorMatrix values="0 0 0 0 0   0 0 0 0 0   0 0 0 0 0  0 0 0 0.5 0" type="matrix" in="shadowInnerInner1"></feColorMatrix>
        </filter>
    </defs>
    <g id="главная" stroke="none" stroke-width="1" fill="none" fill-rule="evenodd">
        <g id="1440-главная-кино-copy-3" transform="translate(-652.000000, -2014.000000)">
            <g id="Group-6" transform="translate(652.000000, 2014.000000)">
                <g id="Group" transform="translate(43.000000, 0.000000)">
                    <g id="Rectangle-Copy-18">
                        <use fill="#191A1D" fill-rule="evenodd" xlink:href="#path-1"></use>
                        <use fill="black" fill-opacity="1" filter="url(#filter-2)" xlink:href="#path-1"></use>
                    </g>
                    <polygon id="Path-2-Copy-8" fill="#111114" fill-rule="nonzero" points="16.25 10.85 32.4887418 10.85 32.4887418 15.0113009 23.2548104 15.0113009 28.5570562 24.7841414 23.2239391 34.7387815 32.5 34.7887599 32.4774227 38.95 16.2808713 38.8627347 23.8167015 24.7965747"></polygon>
                </g>
                <g id="Group-2" transform="translate(0.000000, 64.000000)" fill="#111114">
                    <path d="M41.3367326,6.75015599e-13 L41.3367326,3.07102041 L37.829507,3.07102041 L37.829507,19.9047619 L34.7398083,19.9047619 L34.7398083,3.07102041 L31.2047477,3.07102041 L31.2047477,6.75015599e-13 L41.3367326,6.75015599e-13 Z M50.9978473,19.9047619 L49.8545201,14.9570068 L45.6813759,14.9570068 L44.5094655,19.9047619 L41.3367326,19.9047619 L45.7385423,6.75015599e-13 L49.7687706,6.75015599e-13 L54.1705802,19.9047619 L50.9978473,19.9047619 Z M46.0649923,12.085034 L49.4423206,12.085034 L47.7676123,3.55442177 L46.0649923,12.085034 Z M17.2955363,6.75015599e-13 L28.2252143,6.75015599e-13 L28.2252143,2.94767628 L22.0102071,2.94767628 L25.5789465,9.87031196 L21.9894288,16.9217263 L28.2327917,16.9571287 L28.2175957,19.9047619 L17.3163146,19.8429471 L22.3883946,9.87911915 L17.2955363,6.75015599e-13 Z M7.85714286,9.03304593 L12.7252148,0.518244446 L15.6714928,0.513987522 L15.7142857,19.3847088 L12.7499348,19.3907744 L12.7252148,6.36260013 L7.85832214,14.2408103 L2.96435781,6.36260013 L2.96435781,19.3877448 L-7.46069873e-14,19.3877448 L-7.10542736e-14,0.518244446 L2.96435781,0.518244446 L7.85714286,9.03304593 Z" id="Combined-Shape"></path>
                    <path d="M56,0 L60.5392405,0 C61.3189912,0 62.0523172,0.0904752857 62.7392405,0.271428571 C63.4261638,0.452381857 64.0759463,0.738093286 64.6886076,1.12857143 C65.3012689,1.51904957 65.7886058,2.08094871 66.1506329,2.81428571 C66.51266,3.54762271 66.6936709,4.41904257 66.6936709,5.42857143 L66.6936709,6.51428571 C66.6936709,8.64762971 65.7654101,10.1238054 63.9088608,10.9428571 L67,20 L63.7417722,20 L61.1518987,11.9142857 L59.0911392,11.9142857 L59.0911392,20 L56,20 L56,0 Z M64,6.13300493 L64,5.89655172 C64,4.85221153 63.7256125,4.1083766 63.1768293,3.66502463 C62.628046,3.22167266 61.936996,3 61.1036585,3 L59,3 L59,9 L61.1036585,9 C61.9166707,9 62.6026395,8.77832734 63.1615854,8.33497537 C63.7205312,7.8916234 64,7.15764059 64,6.13300493 Z M77.7861915,20 L76.6280624,15.0285714 L72.4008909,15.0285714 L71.2138085,20 L68,20 L72.4587973,0 L76.5412027,0 L81,20 L77.7861915,20 Z M73,12 L76,12 L74.5123967,4 L73,12 Z M91,0 L91,3.08571429 L87.5384615,3.08571429 L87.5384615,20 L84.489011,20 L84.489011,3.08571429 L81,3.08571429 L81,0 L91,0 Z M93,20 L93,0 L96,0 L96,20 L93,20 Z M107.913462,0 L111,0 L111,20 L107.855769,20 L102.115385,7.25714286 L102.115385,20 L99,20 L99,0 L102.173077,0 L107.913462,12.7428571 L107.913462,0 Z M113,13.2496513 L113,6.75034868 C113,5.50441032 113.155056,4.43050195 113.465174,3.52859135 C113.775292,2.62668075 114.199417,1.92933766 114.737562,1.43654114 C115.275707,0.94374463 115.85945,0.58112622 116.488806,0.348675035 C117.118162,0.116223849 117.797675,0 118.527363,0 C119.23881,0 119.90008,0.111574895 120.511194,0.334728033 C121.122308,0.557881172 121.696929,0.911201674 122.235075,1.39470014 C122.77322,1.87819861 123.197345,2.56624379 123.507463,3.45885635 C123.81758,4.3514689 123.981758,5.4114304 124,6.63877266 L124,6.91771269 L121.044776,6.91771269 L121.044776,6.72245467 C121.008292,5.43932413 120.762025,4.50023543 120.30597,3.90516039 C119.849915,3.31008536 119.257052,3.0125523 118.527363,3.0125523 C116.867322,3.0125523 116.037313,4.32355732 116.037313,6.94560669 L116.037313,13.0264993 C116.037313,15.6671448 116.867322,16.9874477 118.527363,16.9874477 C119.275294,16.9874477 119.881838,16.6852657 120.347015,16.0808926 C120.812191,15.4765195 121.044776,14.4955902 121.044776,13.1380753 L121.044776,11.8828452 L118.609453,11.8828452 L118.609453,8.87029289 L124,8.87029289 L124,13.2496513 C124,14.4955897 123.844944,15.574147 123.534826,16.4853556 C123.224708,17.3965643 122.800583,18.0985563 122.262438,18.5913529 C121.724293,19.0841494 121.145111,19.4421188 120.524876,19.665272 C119.90464,19.8884251 119.23881,20 118.527363,20 C117.797675,20 117.118162,19.8837762 116.488806,19.651325 C115.85945,19.4188738 115.275707,19.0562554 114.737562,18.5634589 C114.199417,18.0706623 113.775292,17.3733192 113.465174,16.4714086 C113.155056,15.569498 113,14.4955897 113,13.2496513 Z M126,13.7238494 L128.856796,13.7238494 C128.856796,14.821019 129.105985,15.6392349 129.604369,16.1785216 C130.102753,16.7178084 130.716825,16.9874477 131.446602,16.9874477 C132.283176,16.9874477 132.923946,16.7457021 133.368932,16.2622036 C133.813918,15.7787052 134.036408,15.0999579 134.036408,14.2259414 C134.036408,13.2961367 133.791669,12.6220384 133.302184,12.2036262 C132.8127,11.7852141 131.998388,11.4365425 130.859223,11.1576011 C130.432037,11.0646206 130.049354,10.9576947 129.711165,10.8368201 C129.372976,10.7159455 128.985844,10.5160404 128.549757,10.237099 C128.113671,9.9581576 127.748788,9.64202873 127.455097,9.28870293 C127.161406,8.93537713 126.912218,8.45653487 126.707524,7.85216179 C126.502831,7.2477887 126.400485,6.57369038 126.400485,5.82984658 C126.400485,4.76986918 126.547329,3.84937629 126.841019,3.06834031 C127.13471,2.28730432 127.535192,1.68294031 128.042476,1.25523013 C128.54976,0.827519944 129.097084,0.511391074 129.684466,0.306834031 C130.271848,0.102276987 130.903718,0 131.580097,0 C132.256476,0 132.883897,0.106925941 133.462379,0.320781032 C134.04086,0.534636123 134.583735,0.874009763 135.091019,1.33891213 C135.598304,1.8038145 136.003235,2.45931702 136.305825,3.30543933 C136.608416,4.15156165 136.759709,5.15108675 136.759709,6.30404463 L133.902913,6.30404463 C133.902913,5.22547113 133.684873,4.40725523 133.248786,3.84937238 C132.8127,3.29148954 132.260926,3.0125523 131.593447,3.0125523 C130.925968,3.0125523 130.387543,3.245 129.978155,3.70990237 C129.568768,4.17480474 129.364078,4.81636039 129.364078,5.63458856 C129.364078,6.00651046 129.426375,6.34123515 129.550971,6.63877266 C129.675567,6.93631018 129.81796,7.16875788 129.978155,7.33612273 C130.13835,7.50348759 130.36529,7.65225411 130.658981,7.78242678 C130.952671,7.91259944 131.18851,8.00092957 131.366505,8.0474198 C131.544499,8.09391004 131.784788,8.15434644 132.087379,8.22873082 C132.176376,8.24732692 132.238673,8.25662483 132.274272,8.25662483 C135.424773,8.96327643 137,10.8507517 137,13.9191074 C137,15.0348731 136.853157,15.9972066 136.559466,16.8061367 C136.265775,17.6150668 135.851944,18.2473245 135.317961,18.7029289 C134.783978,19.1585332 134.201055,19.4886089 133.569175,19.693166 C132.937295,19.897723 132.229777,20 131.446602,20 C130.752424,20 130.098304,19.8930741 129.484223,19.679219 C128.870143,19.4653639 128.296119,19.1259902 127.762136,18.6610879 C127.228153,18.1961855 126.800972,17.540683 126.480583,16.6945607 C126.160193,15.8484384 126,14.8582112 126,13.7238494 Z" id="RATINGS-Copy-11"></path>
                </g>
            </g>
        </g>
    </g>
</svg>