<?xml version="1.0" encoding="UTF-8"?>
<svg width="22px" height="22px" viewBox="0 0 22 22" version="1.1" xmlns="http://www.w3.org/2000/svg" xmlns:xlink="http://www.w3.org/1999/xlink">
    <!-- Generator: Sketch 52.4 (67378) - http://www.bohemiancoding.com/sketch -->
    <title>baseline-public-24px (1) copy 34</title>
    <desc>Created with Sketch.</desc>
    <g id="рейтинг" stroke="none" stroke-width="1" fill="none" fill-rule="evenodd">
        <g id="iPhone-8-кино-рейтинг" transform="translate(-319.000000, -715.000000)">
            <g id="baseline-public-24px-(1)-copy-34" transform="translate(318.000000, 713.000000)">
                <polygon id="Shape" points="0 0 24 0 24 24 0 24"></polygon>
                <path d="M12,2.76923077 C6.39507692,2.76923077 1.84615385,7.31815385 1.84615385,12.9230769 C1.84615385,18.528 6.39507692,23.0769231 12,23.0769231 C17.6049231,23.0769231 22.1538462,18.528 22.1538462,12.9230769 C22.1538462,7.31815385 17.6049231,2.76923077 12,2.76923077 Z M10.9846154,20.9750769 C6.97384615,20.4775385 3.87692308,17.0658462 3.87692308,12.9230769 C3.87692308,12.2935385 3.95815385,11.6944615 4.09015385,11.1055385 L8.95384615,15.9692308 L8.95384615,16.9846154 C8.95384615,18.1015385 9.86769231,19.0153846 10.9846154,19.0153846 L10.9846154,20.9750769 Z M17.9907692,18.396 C17.7267692,17.5735385 16.9753846,16.9846154 16.0615385,16.9846154 L15.0461538,16.9846154 L15.0461538,13.9384615 C15.0461538,13.38 14.5892308,12.9230769 14.0307692,12.9230769 L7.93846154,12.9230769 L7.93846154,10.8923077 L9.96923077,10.8923077 C10.5276923,10.8923077 10.9846154,10.4353846 10.9846154,9.87692308 L10.9846154,7.84615385 L13.0153846,7.84615385 C14.1323077,7.84615385 15.0461538,6.93230769 15.0461538,5.81538462 L15.0461538,5.39907692 C18.0212308,6.60738462 20.1230769,9.52153846 20.1230769,12.9230769 C20.1230769,15.0350769 19.3107692,16.9541538 17.9907692,18.396 Z" id="Shape" fill="#FFFFFF" fill-rule="nonzero"></path>
            </g>
        </g>
    </g>
</svg>