<?xml version="1.0" encoding="UTF-8"?>
<svg width="20px" height="20px" viewBox="0 0 20 20" version="1.1" xmlns="http://www.w3.org/2000/svg" xmlns:xlink="http://www.w3.org/1999/xlink">
    <!-- Generator: Sketch 52.4 (67378) - http://www.bohemiancoding.com/sketch -->
    <title>Group 16</title>
    <desc>Created with Sketch.</desc>
    <defs>
        <polygon id="path-1" points="2.40093648e-05 0.0542268041 19.9471713 0.0542268041 19.9471713 19.9312654 2.40093648e-05 19.9312654"></polygon>
    </defs>
    <g id="обзор-фильма" stroke="none" stroke-width="1" fill="none" fill-rule="evenodd">
        <g id="1440-главная-кино-copy-5" transform="translate(-338.000000, -453.000000)">
            <g id="Group-17" transform="translate(338.000000, 453.000000)">
                <g id="Group-16">
                    <g id="Group-3" transform="translate(0.000000, 0.014502)">
                        <mask id="mask-2" fill="white">
                            <use xlink:href="#path-1"></use>
                        </mask>
                        <g id="Clip-2"></g>
                        <path d="M2.83874483,9.88012371 C2.83874483,10.7538694 2.8424,11.6276838 2.83536552,12.5013608 C2.83405517,12.6575808 2.86750345,12.7179931 3.03736552,12.711945 C3.40157241,12.6989553 3.76674483,12.7018419 4.13115862,12.7109141 C4.27722759,12.714488 4.31302069,12.6625292 4.31274483,12.5240412 C4.30867586,10.7610859 4.30881379,8.99813058 4.31253793,7.23524399 C4.31281379,7.10527835 4.27702069,7.060811 4.14288276,7.06369759 C3.7706069,7.07194502 3.39777931,7.07469416 3.02577931,7.06280412 C2.86743448,7.05771821 2.8346069,7.11235739 2.83564138,7.2588866 C2.84191724,8.1326323 2.83874483,9.00637801 2.83874483,9.88012371 Z M15.3278483,8.89675601 C15.3278483,8.30397251 15.3248828,7.7726323 15.3301241,7.24122337 C15.3312966,7.11943643 15.3105379,7.06005498 15.1676414,7.06349141 C14.7797103,7.07256357 14.3912276,7.07290722 14.0032966,7.06335395 C13.8569517,7.05971134 13.8434345,7.12465979 13.8436414,7.24342268 C13.8464,9.00734021 13.8475034,10.7713265 13.8420552,12.535244 C13.8416414,12.686378 13.8961931,12.7168935 14.030469,12.7129759 C14.2941931,12.7051409 14.558331,12.7109141 14.8222621,12.7105017 C14.9386759,12.7102955 15.0581931,12.7247285 15.1707448,12.703354 C15.324331,12.6743505 15.2316414,12.479299 15.3605379,12.3947629 C15.3941241,12.4349003 15.4235034,12.4818419 15.4637103,12.5162749 C15.8174345,12.8196426 16.2219172,12.8665842 16.6387448,12.694488 C17.0534345,12.523354 17.2459862,12.1858969 17.2455724,11.7390241 C17.2449517,10.9885086 17.2499862,10.2380619 17.2433655,9.48761512 C17.2390897,9.0027354 16.9002621,8.59593127 16.4336414,8.51778694 C16.0292276,8.45002062 15.6604,8.52967698 15.3278483,8.89675601 Z M9.88922759,9.86857732 C9.88922759,10.7505017 9.88943448,11.6324948 9.88895172,12.5144192 C9.88888276,12.6155189 9.86798621,12.7143505 10.0311586,12.7128385 C10.8228828,12.7053471 11.6151586,12.723079 12.4061931,12.6979931 C12.9561931,12.6805361 13.3346069,12.2595739 13.3373655,11.7054158 C13.3432966,10.4984742 13.3432276,9.29160137 13.3377793,8.08472852 C13.3350207,7.4817732 12.9140552,7.07139519 12.3046759,7.06775258 C11.5672276,7.06342268 10.8296414,7.07146392 10.0922621,7.06280412 C9.92888276,7.06087973 9.88398621,7.10651546 9.88550345,7.26919588 C9.89343448,8.13558763 9.88922759,9.00211684 9.88922759,9.86857732 Z M8.06412414,9.16115464 C8.07681379,9.16287285 8.08943448,9.16465979 8.10212414,9.16630928 C8.10212414,10.2801924 8.10543448,11.3941443 8.09846897,12.5079588 C8.09743448,12.6713265 8.1441931,12.7206048 8.30653793,12.7140756 C8.60881379,12.7019794 8.91198621,12.7054845 9.21453793,12.7129759 C9.34495172,12.7162062 9.38846897,12.6749691 9.3881931,12.5419107 C9.3844,10.770433 9.38481379,8.99902405 9.38736552,7.22754639 C9.38757241,7.1140756 9.36391724,7.06239175 9.23467586,7.06390378 C8.69143448,7.07029553 8.14791724,7.07084536 7.60467586,7.06349141 C7.47715862,7.06170447 7.45115862,7.1155189 7.43895172,7.22328522 C7.40322759,7.53813058 7.35853793,7.85201375 7.31708966,8.16624055 C7.25612414,8.62823368 7.19488276,9.09015808 7.13377931,9.55221993 C6.98357241,8.78417869 6.8681931,8.02012371 6.76295172,7.25469416 C6.74343448,7.11242612 6.69943448,7.05971134 6.54688276,7.06266667 C6.02695172,7.07276976 5.50674483,7.06953952 4.98674483,7.06431615 C4.86350345,7.06314777 4.80826207,7.08617182 4.8086069,7.22761512 C4.81315862,8.99909278 4.81295172,10.7705017 4.80881379,12.5419107 C4.80853793,12.6759313 4.85226207,12.7162062 4.98150345,12.7127698 C5.25295172,12.7055533 5.52481379,12.7107079 5.79646897,12.7106392 C6.10798621,12.7106392 6.1081931,12.7105704 6.10826207,12.4079588 C6.10833103,11.3432165 6.10826207,10.2784742 6.10826207,9.21380069 C6.15833103,9.33112027 6.18198621,9.45084536 6.19957241,9.57153265 C6.34329655,10.558268 6.48729655,11.5450722 6.62708966,12.5323574 C6.64508966,12.6593677 6.68502069,12.72411 6.83053793,12.7138694 C7.02371034,12.7003986 7.2186069,12.7053471 7.4124,12.7125636 C7.53453793,12.7170309 7.58715862,12.6834914 7.60357241,12.5500206 C7.68977931,11.8518076 7.78743448,11.1551753 7.88267586,10.4581306 C7.94171034,10.025622 8.00350345,9.59345704 8.06412414,9.16115464 Z M0.00936551724,9.98026117 C0.00936551724,8.16211684 -0.0162206897,6.34342268 0.0172965517,4.52589691 C0.0450206897,3.02582818 0.598744828,1.75483162 1.86846897,0.86438488 C2.52488276,0.404041237 3.26743448,0.181841924 4.06088276,0.101910653 C4.44764138,0.0628728522 4.83412414,0.0551752577 5.22184828,0.0552439863 C8.52922759,0.056 11.8366759,0.0507766323 15.1440552,0.0584742268 C16.1829517,0.0608797251 17.1855034,0.239848797 18.0593655,0.850089347 C19.1775724,1.63098282 19.7610207,2.72101718 19.8987448,4.06431615 C19.9390207,4.4574433 19.9465379,4.85036426 19.946469,5.24459107 C19.9456414,8.54060481 19.9499862,11.8366873 19.9437103,15.1327698 C19.9417103,16.1932509 19.756331,17.2113952 19.114469,18.0962062 C18.3899172,19.0949003 17.4070897,19.6657595 16.1856414,19.8421856 C15.6775034,19.9156564 15.1678483,19.9316701 14.6556414,19.9312577 C11.3792276,19.9287148 8.10288276,19.9350378 4.82653793,19.9269278 C3.83777931,19.9245223 2.87757241,19.7696082 2.02453793,19.2203986 C0.939848276,18.5221856 0.305365517,17.5290584 0.0972965517,16.2627354 C0.0194344828,15.7890584 -0.000772413793,15.3115326 0.000606896552,14.8315326 C0.00543448276,13.214488 0.00246896552,11.5973058 0.00246896552,9.98026117 L0.00936551724,9.98026117 Z" id="Fill-1" fill="#FFC500" mask="url(#mask-2)"></path>
                    </g>
                    <path d="M8.06409655,9.17566323 C8.00354483,9.60796564 7.94175172,10.0401306 7.88264828,10.4726392 C7.78747586,11.1696838 7.68982069,11.8663162 7.60361379,12.5645292 C7.58713103,12.698 7.53457931,12.7315395 7.41244138,12.7270722 C7.21864828,12.7198557 7.02368276,12.7149072 6.83057931,12.728378 C6.68506207,12.7386186 6.64506207,12.6738763 6.62713103,12.546866 C6.48726897,11.5595808 6.34326897,10.5727766 6.19954483,9.58604124 C6.18195862,9.46535395 6.15830345,9.34562887 6.10830345,9.22830928 C6.10830345,10.2929828 6.10837241,11.3577251 6.10823448,12.4224674 C6.10823448,12.725079 6.10795862,12.7251478 5.79651034,12.7251478 C5.52478621,12.7252165 5.2529931,12.7200619 4.98147586,12.7272784 C4.85223448,12.7307148 4.80851034,12.6904399 4.80885517,12.5564192 C4.81292414,10.7850103 4.81313103,9.01360137 4.80857931,7.24212371 C4.80830345,7.10068041 4.86347586,7.07765636 4.98671724,7.07882474 C5.50671724,7.08404811 6.0269931,7.08727835 6.54685517,7.07717526 C6.6994069,7.07421993 6.74347586,7.12693471 6.7629931,7.26920275 C6.86823448,8.03456357 6.98361379,8.79868729 7.13382069,9.56665979 C7.19485517,9.10466667 7.25609655,8.64274227 7.31706207,8.18068041 C7.35857931,7.86652234 7.4032,7.55263918 7.43892414,7.23779381 C7.45113103,7.13002749 7.47713103,7.07621306 7.60471724,7.078 C8.14795862,7.08535395 8.6914069,7.08480412 9.23471724,7.07841237 C9.36395862,7.07690034 9.38754483,7.12858419 9.38733793,7.24205498 C9.38485517,9.01353265 9.38444138,10.7849416 9.38816552,12.5563505 C9.38844138,12.6894777 9.3449931,12.7307148 9.21451034,12.7274845 C8.91195862,12.7199931 8.60878621,12.716488 8.30657931,12.7285842 C8.14423448,12.7351134 8.0974069,12.6858351 8.09851034,12.5224674 C8.10547586,11.4086529 8.10216552,10.294701 8.10216552,9.18081787 C8.08947586,9.17916838 8.07678621,9.17738144 8.06409655,9.17566323" id="Fill-4" fill="#020200"></path>
                    <path d="M11.3692207,9.89697595 C11.3692207,10.4305842 11.3653586,10.9642612 11.3732897,11.497732 C11.374531,11.5796564 11.2939793,11.7262543 11.4500483,11.7395876 C11.6028069,11.752646 11.7713586,11.7283162 11.8219793,11.5354639 C11.8434276,11.4538832 11.8530138,11.3675601 11.8557034,11.2830928 C11.8860483,10.3322337 11.8756345,9.38123711 11.8616345,8.43024055 C11.8608069,8.37649485 11.8532897,8.32178694 11.8410828,8.26934708 C11.7957034,8.07402062 11.6393586,8.05189003 11.478531,8.05415808 C11.2817724,8.05697595 11.3751517,8.21333333 11.3737724,8.29621993 C11.3648759,8.82969072 11.3692207,9.3633677 11.3692207,9.89697595 M9.88922069,9.88309278 C9.88922069,9.01656357 9.89349655,8.15010309 9.88549655,7.28371134 C9.88397931,7.1209622 9.92887586,7.07539519 10.0922552,7.07731959 C10.8296345,7.08597938 11.5672207,7.07786942 12.304669,7.08226804 C12.9140483,7.08591065 13.3350138,7.49621993 13.3377724,8.09924399 C13.3432897,9.30604811 13.3432897,10.5129897 13.3373586,11.7198625 C13.334669,12.2740893 12.9561862,12.6950515 12.4061862,12.7125086 C11.6151517,12.7375945 10.8228759,12.7198625 10.0311517,12.727354 C9.86797931,12.728866 9.88887586,12.6300344 9.88894483,12.5289347 C9.88942759,11.6470103 9.88928966,10.7650172 9.88922069,9.88309278" id="Fill-6" fill="#020200"></path>
                    <path d="M15.3274345,10.6389622 C15.3274345,10.9473471 15.3314345,11.2558694 15.3258483,11.5641856 C15.3228138,11.7278969 15.3141931,11.8767629 15.5458483,11.8817801 C15.7711586,11.8865911 15.8179862,11.7520893 15.8193655,11.5699588 C15.8230207,11.1074158 15.8300552,10.6450103 15.8289517,10.1825361 C15.8285379,9.98253608 15.8215724,9.78150515 15.7988138,9.58308591 C15.7791586,9.41105842 15.6400552,9.39490722 15.5001241,9.40397938 C15.3648138,9.4127079 15.3222621,9.48947766 15.3250207,9.62129897 C15.3321241,9.9604055 15.3274345,10.2997182 15.3274345,10.6389622 M15.3278483,8.9112646 C15.6604,8.54418557 16.0292276,8.46452921 16.4337103,8.53229553 C16.9002621,8.61043986 17.2390897,9.01724399 17.2433655,9.50212371 C17.2499862,10.2525704 17.2449517,11.0030172 17.2455724,11.7535326 C17.2459862,12.2004055 17.0534345,12.5378625 16.6387448,12.7089966 C16.2219172,12.8810928 15.8174345,12.8340825 15.4637793,12.5307835 C15.4235724,12.4963505 15.3941241,12.4494089 15.3605379,12.4092715 C15.2316414,12.4938076 15.324331,12.6888591 15.1708138,12.7178625 C15.0581931,12.7392371 14.9386759,12.7248041 14.8222621,12.7250103 C14.558331,12.7254227 14.2941931,12.7195808 14.030469,12.7274845 C13.8961931,12.7314021 13.8416414,12.7008866 13.8420552,12.5497526 C13.8475034,10.7858351 13.8464,9.0218488 13.8436414,7.25793127 C13.8434345,7.13916838 13.8569517,7.07421993 14.0032966,7.07786254 C14.3912276,7.08741581 14.7797103,7.08707216 15.1676414,7.07793127 C15.3105379,7.07456357 15.3312966,7.13394502 15.3301241,7.25573196 C15.3248828,7.78714089 15.3278483,8.3184811 15.3278483,8.9112646" id="Fill-8" fill="#020200"></path>
                    <path d="M2.83874483,9.89462543 C2.83874483,9.02087973 2.84191724,8.14713402 2.83564138,7.27338832 C2.8346069,7.12685911 2.86743448,7.07221993 3.02577931,7.07730584 C3.39777931,7.08919588 3.7706069,7.08644674 4.14288276,7.07819931 C4.27702069,7.07531271 4.31281379,7.11978007 4.31253793,7.2497457 C4.30881379,9.0126323 4.30867586,10.7755876 4.31274483,12.538543 C4.31302069,12.6770309 4.27722759,12.7289897 4.13115862,12.7254158 C3.76674483,12.7163436 3.40157241,12.713457 3.03736552,12.7264467 C2.86750345,12.7324948 2.83405517,12.6720825 2.83536552,12.5158625 C2.8424,11.6421856 2.83874483,10.7683711 2.83874483,9.89462543" id="Fill-10" fill="#020200"></path>
                    <path d="M11.3692207,9.89697595 C11.3692207,9.3633677 11.3648759,8.82969072 11.3737724,8.29621993 C11.3751517,8.21333333 11.2817724,8.05697595 11.478531,8.05415808 C11.6393586,8.05189003 11.7957034,8.07402062 11.8410828,8.26934708 C11.8532897,8.32178694 11.8608069,8.37649485 11.8616345,8.43024055 C11.8756345,9.38123711 11.8860483,10.3322337 11.8557034,11.2830928 C11.8530138,11.3675601 11.8434276,11.4538832 11.8219793,11.5354639 C11.7713586,11.7283162 11.6028069,11.752646 11.4500483,11.7395876 C11.2939793,11.7262543 11.374531,11.5796564 11.3732897,11.497732 C11.3653586,10.9642612 11.3692207,10.4305842 11.3692207,9.89697595" id="Fill-12" fill="#FFC500"></path>
                    <path d="M15.3274345,10.6389622 C15.3274345,10.2997182 15.3321241,9.9604055 15.3250207,9.62129897 C15.3222621,9.48947766 15.3648138,9.4127079 15.5001241,9.40397938 C15.6400552,9.39490722 15.7791586,9.41105842 15.7988138,9.58308591 C15.8215724,9.78150515 15.8285379,9.98253608 15.8289517,10.1825361 C15.8300552,10.6450103 15.8230207,11.1074158 15.8193655,11.5699588 C15.8179862,11.7520893 15.7711586,11.8865911 15.5458483,11.8817801 C15.3141931,11.8767629 15.3228138,11.7278969 15.3258483,11.5641856 C15.3314345,11.2558694 15.3274345,10.9473471 15.3274345,10.6389622" id="Fill-14" fill="#FFC500"></path>
                </g>
            </g>
        </g>
    </g>
</svg>