<?xml version="1.0" encoding="UTF-8"?>
<svg width="18px" height="18px" viewBox="0 0 18 18" version="1.1" xmlns="http://www.w3.org/2000/svg" xmlns:xlink="http://www.w3.org/1999/xlink">
    <!-- Generator: Sketch 52.4 (67378) - http://www.bohemiancoding.com/sketch -->
    <title>slow_motion_video-24px copy</title>
    <desc>Created with Sketch.</desc>
    <g id="Page-1" stroke="none" stroke-width="1" fill="none" fill-rule="evenodd">
        <g id="1440-новое--иви-обзор-кино-copy-5" transform="translate(-525.000000, -806.000000)" fill="#000000" fill-rule="nonzero">
            <g id="slow_motion_video-24px-copy" transform="translate(525.000000, 806.000000)">
                <path d="M7.2,5.85 L7.2,12.15 C7.2,12.519 7.623,12.735 7.92,12.51 L12.123,9.36 C12.366,9.18 12.366,8.82 12.123,8.64 L7.92,5.49 C7.623,5.265 7.2,5.481 7.2,5.85 Z M8.1,1.107 C8.1,0.531 7.569,0.09 7.011,0.216 C6.003,0.45 5.049,0.846 4.203,1.386 C3.726,1.692 3.654,2.376 4.059,2.781 C4.347,3.069 4.806,3.141 5.148,2.925 C5.841,2.484 6.606,2.16 7.434,1.98 C7.83,1.89 8.1,1.521 8.1,1.107 Z M2.79,4.059 C2.376,3.654 1.701,3.717 1.395,4.203 C0.855,5.049 0.459,6.003 0.225,7.011 C0.099,7.569 0.531,8.1 1.107,8.1 C1.512,8.1 1.89,7.83 1.971,7.434 C2.151,6.615 2.484,5.841 2.916,5.157 C3.15,4.806 3.078,4.347 2.79,4.059 Z M1.107,9.9 C0.531,9.9 0.09,10.431 0.216,10.989 C0.45,11.997 0.846,12.942 1.386,13.797 C1.692,14.283 2.376,14.346 2.781,13.941 C3.069,13.653 3.141,13.194 2.916,12.852 C2.475,12.168 2.151,11.403 1.971,10.575 C1.89,10.17 1.521,9.9 1.107,9.9 Z M4.203,16.605 C5.058,17.145 6.003,17.541 7.011,17.775 C7.569,17.901 8.1,17.46 8.1,16.893 C8.1,16.488 7.83,16.11 7.434,16.029 C6.615,15.849 5.841,15.516 5.157,15.084 C4.806,14.868 4.356,14.931 4.068,15.228 C3.654,15.624 3.717,16.299 4.203,16.605 Z M18,9 C18,13.257 15.03,16.839 11.043,17.766 C10.485,17.901 9.945,17.46 9.945,16.884 C9.945,16.47 10.224,16.11 10.62,16.011 C13.815,15.273 16.2,12.411 16.2,9 C16.2,5.589 13.815,2.727 10.62,1.989 C10.224,1.899 9.945,1.53 9.945,1.116 C9.945,0.54 10.485,0.099 11.043,0.234 C15.03,1.161 18,4.743 18,9 Z" id="Shape"></path>
            </g>
        </g>
    </g>
</svg>