<?xml version="1.0" encoding="UTF-8"?>
<svg width="20px" height="20px" viewBox="0 0 20 20" version="1.1" xmlns="http://www.w3.org/2000/svg" xmlns:xlink="http://www.w3.org/1999/xlink">
    <!-- Generator: Sketch 52.4 (67378) - http://www.bohemiancoding.com/sketch -->
    <title>Group 16</title>
    <desc>Created with Sketch.</desc>
    <defs>
        <polygon id="path-1" points="0 0.0308123069 19.969781 0.0308123069 19.969781 19.9312715 0 19.9312715"></polygon>
    </defs>
    <g id="обзор-фильма" stroke="none" stroke-width="1" fill="none" fill-rule="evenodd">
        <g id="1440-главная-кино-copy-5" transform="translate(-402.000000, -453.000000)">
            <g id="Group-18" transform="translate(402.000000, 453.000000)">
                <g id="Group-16">
                    <g id="Group-3" transform="translate(0.000000, 0.037938)">
                        <mask id="mask-2" fill="white">
                            <use xlink:href="#path-1"></use>
                        </mask>
                        <g id="Clip-2"></g>
                        <path d="M17.9636828,9.98368385 C17.9512,5.59646735 14.4212,2.06017869 10.0095448,2.0334433 C5.65009655,2.00705155 2.05388966,5.51385567 2.00154483,9.95426804 C1.95457931,13.9359863 5.37209655,18.5111065 11.047269,17.8680825 C14.3112,17.4981856 17.9024414,14.6518625 17.9636828,9.98368385 Z M0.0100275862,9.96677663 C0.0100275862,8.13818557 -0.0174896552,6.3091134 0.0185793103,4.48127835 C0.0480965517,2.98746392 0.609889655,1.72498969 1.87326897,0.839835052 C2.52395862,0.383958763 3.25961379,0.160797251 4.04595862,0.0811408935 C4.42526897,0.0427216495 4.80437241,0.0311752577 5.18506207,0.0313127148 C8.51278621,0.0326872852 11.8405793,0.027257732 15.1683724,0.0355051546 C16.1178897,0.0379106529 17.0434069,0.185402062 17.8703034,0.694680412 C19.0009241,1.3910378 19.6634759,2.40402749 19.873131,3.70931959 C19.9477517,4.17337457 19.9660966,4.64375258 19.9667172,5.11254983 C19.9709931,8.44443986 19.9695448,11.7762612 19.9695448,15.1080825 C19.9695448,15.6203849 19.9333379,16.1323436 19.7984414,16.6257457 C19.5954069,17.3683574 19.2369931,18.0235464 18.6925793,18.5898694 C17.8943034,19.4203162 16.913131,19.7977732 15.791131,19.8949553 C15.4187172,19.927189 15.0468552,19.9295945 14.6743034,19.9296632 C11.3932,19.9300756 8.11209655,19.934268 4.8309931,19.9272577 C3.93009655,19.9253333 3.04526897,19.8021718 2.24602759,19.3496632 C0.917613793,18.5977045 0.216372414,17.4371546 0.0501655172,15.9368797 C0.00747586207,15.5514502 0.000717241379,15.1655395 0.00106206897,14.7785979 C0.00244137931,13.1746804 0.0016137931,11.5707629 0.0016137931,9.96677663 L0.0100275862,9.96677663 Z" id="Fill-1" fill="#FF7E00" mask="url(#mask-2)"></path>
                    </g>
                    <path d="M9.97526897,9.0302268 C9.42168276,9.03469416 8.99251034,9.46933333 8.99451034,10.0231478 C8.99657931,10.5757251 9.42995862,11.0059656 9.98506207,11.006378 C10.5490621,11.0067904 10.9843724,10.5661031 10.9774759,10.0018419 C10.9706483,9.45112027 10.5318897,9.02575945 9.97526897,9.0302268 M13.821131,10.2198488 C14.9185793,10.2186804 15.8109931,9.33517526 15.8139586,8.24685911 C15.8169931,7.14679038 14.9209931,6.25098282 13.8180966,6.25132646 C12.7256828,6.25173883 11.8314759,7.13709966 11.8230621,8.22651546 C11.8145793,9.32074227 12.7169241,10.2209485 13.821131,10.2198488 M9.78278621,13.844866 C9.78568276,14.9376495 10.675269,15.8258282 11.7680966,15.8270653 C12.8718207,15.8283024 13.7683724,14.933732 13.7665103,13.8329759 C13.7647172,12.7360687 12.8522345,11.835244 11.7563034,11.8484399 C10.6605103,11.861567 9.77988966,12.7524261 9.78278621,13.844866 M10.1879586,6.19758076 C10.1878207,5.10424742 9.30113103,4.21373196 8.20933793,4.21036426 C7.10506207,4.20699656 6.20616552,5.09902405 6.20588966,6.19833677 C6.20561379,7.29586254 7.11175172,8.19538144 8.20995862,8.18761512 C9.3034069,8.17998625 10.1880966,7.28988316 10.1879586,6.19758076 M6.15244138,13.7859656 C7.25471724,13.7860344 8.1572,12.8834227 8.14961379,11.7885086 C8.14202759,10.6988866 7.24782069,9.816 6.15209655,9.81620619 C5.05444138,9.81641237 4.16057931,10.7003299 4.1572,11.7887148 C4.15382069,12.8896082 5.04926897,13.7859656 6.15244138,13.7859656 M17.9636828,10.0216357 C17.9024414,14.6898144 14.3112,17.5361375 11.047269,17.9060344 C5.37209655,18.5490584 1.95457931,13.9739381 2.00154483,9.99221993 C2.05388966,5.55180756 5.65009655,2.04500344 10.0095448,2.07139519 C14.4212,2.09813058 17.9512,5.63441924 17.9636828,10.0216357" id="Fill-4" fill="#FEFDFD"></path>
                    <path d="M6.15243448,13.7859863 C5.04926207,13.7859863 4.15388276,12.8896289 4.1571931,11.7886667 C4.16057241,10.7003505 5.05450345,9.81643299 6.15215862,9.81615808 C7.24781379,9.81595189 8.14208966,10.6989072 8.1496069,11.7885292 C8.1571931,12.8834433 7.25471034,13.786055 6.15243448,13.7859863" id="Fill-6" fill="#FF7E00"></path>
                    <path d="M10.1879931,6.1975945 C10.188131,7.28989691 9.30337241,8.18 8.20992414,8.18762887 C7.11178621,8.19532646 6.20564828,7.29580756 6.20592414,6.19835052 C6.2062,5.0990378 7.10509655,4.20701031 8.20937241,4.21037801 C9.30116552,4.2137457 10.1878552,5.10426117 10.1879931,6.1975945" id="Fill-8" fill="#FF7E00"></path>
                    <path d="M9.78282069,13.8448454 C9.77992414,12.7524055 10.6604759,11.8616151 11.756269,11.8484192 C12.8522,11.8352921 13.7646828,12.7360481 13.7665448,13.8329553 C13.7683379,14.9337801 12.8718552,15.8282818 11.7680621,15.8270447 C10.6752345,15.8258076 9.78571724,14.9376289 9.78282069,13.8448454" id="Fill-10" fill="#FF7E00"></path>
                    <path d="M13.8211103,10.2198213 C12.7169724,10.2209897 11.8145586,9.32071478 11.8230414,8.22648797 C11.8314552,7.13707216 12.725731,6.25178007 13.8180759,6.2513677 C14.9209724,6.25095533 15.8169724,7.14676289 15.8139379,8.24683162 C15.8109724,9.33521649 14.9186276,10.2186529 13.8211103,10.2198213" id="Fill-12" fill="#FF7E00"></path>
                    <path d="M9.97526897,9.0302268 C10.5318897,9.02575945 10.9706483,9.45112027 10.9774759,10.0018419 C10.9843724,10.5661031 10.5490621,11.0067904 9.98506207,11.006378 C9.42995862,11.0059656 8.99657931,10.5757251 8.99451034,10.0231478 C8.99251034,9.46933333 9.42168276,9.03469416 9.97526897,9.0302268" id="Fill-14" fill="#FF7E00"></path>
                </g>
            </g>
        </g>
    </g>
</svg>