<?xml version="1.0" encoding="UTF-8"?>
<svg width="764px" height="240px" viewBox="0 0 764 240" version="1.1" xmlns="http://www.w3.org/2000/svg" xmlns:xlink="http://www.w3.org/1999/xlink">
    <!-- Generator: Sketch 52.4 (67378) - http://www.bohemiancoding.com/sketch -->
    <title>Group</title>
    <desc>Created with Sketch.</desc>
    <defs>
        <polygon id="path-1" points="0 0 451 0 451 240 0 240"></polygon>
    </defs>
    <g id="главная" stroke="none" stroke-width="1" fill="none" fill-rule="evenodd">
        <g id="Group">
            <g id="Group-Copy">
                <g id="Group-20-Copy-12">
                    <g id="Group-3">
                        <mask id="mask-2" fill="white">
                            <use xlink:href="#path-1"></use>
                        </mask>
                        <g id="Clip-2"></g>
                        <path d="M10.824,240 C4.84514679,240 0,235.316 0,229.536 L0,10.464 C0,4.684 4.84514679,0 10.824,0 L397.740624,0 C427.159064,0 451,23.052 451,51.488 L451,229.536 C451,235.316 446.154853,240 440.176,240 L10.824,240 Z" id="Fill-1" fill="#601DC0" mask="url(#mask-2)"></path>
                    </g>
                    <polygon id="Fill-8" fill="#FFFFFF" points="331.892 53 331.892 73.736 307.7 73.736 307.7 187.4 286.388 187.4 286.388 73.736 262 73.736 262 53"></polygon>
                    <path d="M363.488,132.488 L386.724,132.488 L375.2,77.572 L363.488,132.488 Z M396.896,187.4 L389.216,153.992 L361.184,153.992 L353.312,187.4 L332,187.4 L361.568,53 L388.64,53 L418.208,187.4 L396.896,187.4 Z" id="Fill-10" fill="#FFFFFF"></path>
                    <polygon id="Path-2" fill="#FFFFFF" fill-rule="nonzero" points="165 53 242.366542 53 242.366542 73 198.438855 73 223.658047 119.970282 198.292018 167.814336 242.420837 168.054591 242.311951 188.054295 165.146836 187.634177 200.989466 120.029718"></polygon>
                    <polygon id="Path-2-Copy-6" fill="#FFFFFF" fill-rule="nonzero" transform="translate(93.010759, 120.037362) rotate(-270.000000) translate(-93.010759, -120.037362) " points="86.4810676 120.037362 26.0036321 87.1933381 25.9733968 67.3153194 160.005039 67.0266032 160.048121 87.0265568 67.5138945 87.1933381 123.469861 120.029406 67.5138945 153.048121 160.026603 153.048121 160.026603 173.048121 26.0036321 173.048121 26.0036321 153.048121"></polygon>
                </g>
            </g>
            <path d="M491,189 L491,52 L510.811024,52 L510.811024,114.535112 L511.199475,114.535112 L540.139108,52 L559.950131,52 L532.952756,106.838483 L565,189 L544.023622,189 L521.493438,128.196629 L510.811024,148.015449 L510.811024,189 L491,189 Z M574,189 L574,52 L594,52 L594,189 L574,189 Z M612,189 L612,52 L630.994382,52 L660.842697,134.546348 L661.230337,134.546348 L661.230337,52 L681,52 L681,189 L662.393258,189 L632.157303,106.646067 L631.769663,106.646067 L631.769663,189 L612,189 Z M698,83.6464088 C698,78.103103 698.964903,73.2044412 700.894737,68.9502762 C702.824571,64.6961113 705.397645,61.1510271 708.614035,58.3149171 C711.70177,55.6077213 715.207583,53.5451268 719.131579,52.1270718 C723.055575,50.7090169 727.011676,50 731,50 C734.988324,50 738.944425,50.7090169 742.868421,52.1270718 C746.792417,53.5451268 750.362557,55.6077213 753.578947,58.3149171 C756.666682,61.1510271 759.175429,64.6961113 761.105263,68.9502762 C763.035097,73.2044412 764,78.103103 764,83.6464088 L764,156.353591 C764,162.154725 763.035097,167.117843 761.105263,171.243094 C759.175429,175.368345 756.666682,178.784517 753.578947,181.491713 C750.362557,184.327823 746.792417,186.454873 742.868421,187.872928 C738.944425,189.290983 734.988324,190 731,190 C727.011676,190 723.055575,189.290983 719.131579,187.872928 C715.207583,186.454873 711.70177,184.327823 708.614035,181.491713 C705.397645,178.784517 702.824571,175.368345 700.894737,171.243094 C698.964903,167.117843 698,162.154725 698,156.353591 L698,83.6464088 Z M717,156.153846 C717,160.89746 718.336943,164.391014 721.01087,166.634615 C723.684796,168.878216 726.847808,170 730.5,170 C734.152192,170 737.315204,168.878216 739.98913,166.634615 C742.663057,164.391014 744,160.89746 744,156.153846 L744,83.8461538 C744,79.1025404 742.663057,75.6089856 739.98913,73.3653846 C737.315204,71.1217837 734.152192,70 730.5,70 C726.847808,70 723.684796,71.1217837 721.01087,73.3653846 C718.336943,75.6089856 717,79.1025404 717,83.8461538 L717,156.153846 Z" id="KINO-REVIEWSM-Copy" fill="#000000"></path>
        </g>
    </g>
</svg>