<?xml version="1.0" encoding="UTF-8"?>
<svg width="20px" height="20px" viewBox="0 0 20 20" version="1.1" xmlns="http://www.w3.org/2000/svg" xmlns:xlink="http://www.w3.org/1999/xlink">
    <!-- Generator: Sketch 52.4 (67378) - http://www.bohemiancoding.com/sketch -->
    <title>Group 11</title>
    <desc>Created with Sketch.</desc>
    <defs>
        <polygon id="path-1" points="3.52752458e-05 0.043161512 19.9485237 0.043161512 19.9485237 19.9312715 3.52752458e-05 19.9312715"></polygon>
        <polygon id="path-3" points="4.21717975e-05 0.043161512 19.9485306 0.043161512 19.9485306 19.9312715 4.21717975e-05 19.9312715"></polygon>
    </defs>
    <g id="обзор-фильма" stroke="none" stroke-width="1" fill="none" fill-rule="evenodd">
        <g id="1440-главная-кино-copy-5" transform="translate(-275.000000, -453.000000)">
            <g id="Group-11" transform="translate(275.000000, 453.000000)">
                <g id="Group-3" transform="translate(0.000000, 0.025567)">
                    <mask id="mask-2" fill="white">
                        <use xlink:href="#path-1"></use>
                    </mask>
                    <g id="Clip-2"></g>
                    <path d="M19.9484759,10.0139863 C19.9653034,4.52546392 15.5445448,0.0691752577 10.0571655,0.0432646048 C4.5184069,0.0171477663 0.0237862069,4.43591065 0.000131034483,9.93061856 C-0.0237310345,15.444433 4.41502759,19.9102749 9.93978621,19.9312371 C15.4822,19.9521993 19.9315103,15.5434708 19.9484759,10.0139863" id="Fill-1" fill="#FDFDFD" mask="url(#mask-2)"></path>
                </g>
                <g id="Group-6" transform="translate(0.000000, 0.025567)">
                    <mask id="mask-4" fill="white">
                        <use xlink:href="#path-3"></use>
                    </mask>
                    <g id="Clip-5"></g>
                    <path d="M17.7457931,9.97727148 C17.7695172,5.68874914 14.2911034,2.19252921 9.97772414,2.16964261 C5.66255172,2.14675601 2.15496552,5.59493471 2.12462069,9.88978007 C2.09393103,14.2230447 5.5582069,17.7275808 9.90710345,17.7624948 C14.2004138,17.7969278 17.7218621,14.2995395 17.7457931,9.97727148 M19.9484828,10.0139725 C19.9315172,15.543457 15.4822069,19.9521856 9.9397931,19.9312234 C4.41503448,19.9102612 -0.0237241379,15.4444192 0.000137931034,9.93060481 C0.0237931034,4.43589691 4.51841379,0.0171340206 10.0571724,0.0432508591 C15.5445517,0.069161512 19.9653103,4.52545017 19.9484828,10.0139725" id="Fill-4" fill="#FFCE13" mask="url(#mask-4)"></path>
                </g>
                <path d="M5.26771724,10.128488 C4.97971724,9.89680412 4.76771724,9.73020619 4.56047586,9.55790378 C4.45385517,9.46924399 4.3784069,9.42415808 4.25192414,9.55742268 C3.86537241,9.96505155 3.46495862,10.3601718 3.05888966,10.7486942 C2.92688966,10.8749485 2.96806207,10.9385223 3.08047586,11.0414089 C4.9184069,12.722921 6.63785517,14.5245017 8.40557931,16.277079 C8.55709655,16.4273196 8.63068276,16.4290378 8.7762,16.2766667 C9.20392414,15.8288316 9.64054483,15.3883505 10.0928897,14.9654639 C10.2733034,14.7967354 10.2553034,14.7109622 10.0870276,14.5460825 C9.07095862,13.5503436 8.0699931,12.5394158 7.05909655,11.5385223 C6.76426897,11.2466323 6.55564828,10.914811 6.50957931,10.4983849 C6.4619931,10.0682818 6.60316552,9.70704467 6.94813103,9.43920962 C7.28157931,9.18017182 7.64406207,9.18305842 8.01909655,9.34649485 C8.37392414,9.50106529 8.65344138,9.75446735 8.9219931,10.0222337 C9.88068276,10.9779038 10.8417862,11.9312371 11.7929586,12.8943299 C11.9390966,13.0423024 12.0170966,13.0494502 12.1638552,12.895567 C12.5913034,12.4475258 13.0285448,12.007732 13.4804759,11.5843643 C13.6582,11.4179038 13.6510276,11.330756 13.4795103,11.1625773 C12.4557862,10.1583849 11.4459931,9.13996564 10.4296483,8.12828179 C10.1464069,7.84635739 9.93578621,7.52780069 9.87985517,7.1237457 C9.76357931,6.28292096 10.5800621,5.63171821 11.3677862,5.94285223 C11.7709586,6.10202749 12.0863379,6.38780069 12.3879931,6.68848797 C13.3142,7.6119244 14.2467517,8.52910653 15.1603379,9.46477663 C15.3500621,9.65900344 15.4425448,9.63584192 15.6124069,9.45591065 C16.0216483,9.02230241 16.4447517,8.60072165 16.8797172,8.19274914 C17.0565448,8.02676976 17.0483379,7.93350515 16.878269,7.76649485 C15.8550966,6.76168385 14.844131,5.74450172 13.8286828,4.73185567 C13.4456483,4.35 13.0346828,4.00271478 12.556131,3.74367698 C10.8829586,2.83769759 8.94592414,3.7837457 8.60944138,5.66072165 C8.53723448,6.06360825 8.55364828,6.46532646 8.57771724,6.89 C7.56695862,6.54972509 6.74613103,6.825189 6.04026897,7.53542955 C5.34702759,8.23302405 5.10951034,9.07920962 5.26771724,10.128488 M17.7457862,10.0028522 C17.7218552,14.3251203 14.2004069,17.8225086 9.90709655,17.7880756 C5.5582,17.7530928 2.09392414,14.2486254 2.12461379,9.9152921 C2.15495862,5.62051546 5.66254483,2.17233677 9.97771724,2.19522337 C14.2910966,2.21810997 17.7695103,5.71426117 17.7457862,10.0028522" id="Fill-7" fill="#020201"></path>
                <path d="M5.26771724,10.128488 C5.10951034,9.07920962 5.34702759,8.23302405 6.04026897,7.53542955 C6.74613103,6.825189 7.56695862,6.54972509 8.57771724,6.89 C8.55364828,6.46532646 8.53723448,6.06360825 8.60944138,5.66072165 C8.94592414,3.7837457 10.8829586,2.83769759 12.556131,3.74367698 C13.0346828,4.00271478 13.4456483,4.35 13.8286828,4.73185567 C14.844131,5.74450172 15.8550966,6.76168385 16.878269,7.76649485 C17.0483379,7.93350515 17.0565448,8.02676976 16.8797172,8.19274914 C16.4447517,8.60072165 16.0216483,9.02230241 15.6124069,9.45591065 C15.4425448,9.63584192 15.3500621,9.65900344 15.1603379,9.46477663 C14.2467517,8.52910653 13.3142,7.6119244 12.3879931,6.68848797 C12.0863379,6.38780069 11.7709586,6.10202749 11.3677862,5.94285223 C10.5800621,5.63171821 9.76357931,6.28292096 9.87985517,7.1237457 C9.93578621,7.52780069 10.1464069,7.84635739 10.4296483,8.12828179 C11.4459931,9.13996564 12.4557862,10.1583849 13.4795103,11.1625773 C13.6510276,11.330756 13.6582,11.4179038 13.4804759,11.5843643 C13.0285448,12.007732 12.5913034,12.4475258 12.1638552,12.895567 C12.0170966,13.0494502 11.9390966,13.0423024 11.7929586,12.8943299 C10.8417862,11.9312371 9.88068276,10.9779038 8.9219931,10.0222337 C8.65344138,9.75446735 8.37392414,9.50106529 8.01909655,9.34649485 C7.64406207,9.18305842 7.28157931,9.18017182 6.94813103,9.43920962 C6.60316552,9.70704467 6.4619931,10.0682818 6.50957931,10.4983849 C6.55564828,10.914811 6.76426897,11.2466323 7.05909655,11.5385223 C8.0699931,12.5394158 9.07095862,13.5503436 10.0870276,14.5460825 C10.2553034,14.7109622 10.2733034,14.7967354 10.0928897,14.9654639 C9.64054483,15.3883505 9.20392414,15.8288316 8.7762,16.2766667 C8.63068276,16.4290378 8.55709655,16.4273196 8.40557931,16.277079 C6.63785517,14.5245017 4.9184069,12.722921 3.08047586,11.0414089 C2.96806207,10.9385223 2.92688966,10.8749485 3.05888966,10.7486942 C3.46495862,10.3601718 3.86537241,9.96505155 4.25192414,9.55742268 C4.3784069,9.42415808 4.45385517,9.46924399 4.56047586,9.55790378 C4.76771724,9.73020619 4.97971724,9.89680412 5.26771724,10.128488" id="Fill-9" fill="#FDFDFD"></path>
            </g>
        </g>
    </g>
</svg>