<?xml version="1.0" encoding="UTF-8"?>
<svg width="38px" height="38px" viewBox="0 0 38 38" version="1.1" xmlns="http://www.w3.org/2000/svg" xmlns:xlink="http://www.w3.org/1999/xlink">
    <!-- Generator: Sketch 52.4 (67378) - http://www.bohemiancoding.com/sketch -->
    <title>Без названия Copy 3</title>
    <desc>Created with Sketch.</desc>
    <g id="Page-1" stroke="none" stroke-width="1" fill="none" fill-rule="evenodd">
        <g id="Без-названия-Copy-3" fill="#EB011B" fill-rule="nonzero">
            <path d="M18.9494681,37.8989362 C8.46409574,37.8989362 0,29.4348404 0,18.9494681 C0,8.46409574 8.46409574,0 18.9494681,0 C29.4348404,0 37.8989362,8.46409574 37.8989362,18.9494681 C37.8989362,29.4348404 29.4348404,37.8989362 18.9494681,37.8989362 Z M18.9494681,2.52659574 C9.8537234,2.52659574 2.52659574,9.8537234 2.52659574,18.9494681 C2.52659574,28.0452128 9.8537234,35.3723404 18.9494681,35.3723404 C28.0452128,35.3723404 35.3723404,28.0452128 35.3723404,18.9494681 C35.3723404,9.8537234 28.0452128,2.52659574 18.9494681,2.52659574 Z M13.3404255,16.9787234 C14.4567458,16.9787234 15.3617021,16.073767 15.3617021,14.9574468 C15.3617021,13.8411266 14.4567458,12.9361702 13.3404255,12.9361702 C12.2241053,12.9361702 11.3191489,13.8411266 11.3191489,14.9574468 C11.3191489,16.073767 12.2241053,16.9787234 13.3404255,16.9787234 Z M24.4574468,16.9787234 C25.573767,16.9787234 26.4787234,16.073767 26.4787234,14.9574468 C26.4787234,13.8411266 25.573767,12.9361702 24.4574468,12.9361702 C23.3411266,12.9361702 22.4361702,13.8411266 22.4361702,14.9574468 C22.4361702,16.073767 23.3411266,16.9787234 24.4574468,16.9787234 Z M11.7486702,25.4245856 C11.2433511,25.8035749 11.1170213,26.6878834 11.4960106,27.1932026 C11.875,27.6985217 12.7593085,27.8248515 13.2646277,27.4458622 C15.0332447,26.1825643 16.8018617,25.5509154 18.8231383,25.5509154 C20.8444149,25.5509154 22.7393617,26.1825643 24.5079787,27.572192 C25.0132979,27.9511813 25.8976064,27.8248515 26.2765957,27.3195324 C26.6555851,26.8142132 26.5292553,25.9299047 26.0239362,25.5509154 C23.8763298,23.9086281 21.349734,23.0243196 18.8231383,23.0243196 C16.2965426,23.0243196 13.8962766,23.7822983 11.7486702,25.4245856 Z" id="Shape"></path>
        </g>
    </g>
</svg>