<?xml version="1.0" encoding="UTF-8"?>
<svg width="27px" height="27px" viewBox="0 0 27 27" version="1.1" xmlns="http://www.w3.org/2000/svg" xmlns:xlink="http://www.w3.org/1999/xlink">
    <!-- Generator: Sketch 52.4 (67378) - http://www.bohemiancoding.com/sketch -->
    <title>photo_library-24px</title>
    <desc>Created with Sketch.</desc>
    <g id="Page-1" stroke="none" stroke-width="1" fill="none" fill-rule="evenodd">
        <g id="1440-новое--иви-обзор-кино-copy-5" transform="translate(-999.000000, -365.000000)">
            <g id="photo_library-24px" transform="translate(997.000000, 363.000000)">
                <polygon id="Path" points="0 0 31 0 31 31 0 31"></polygon>
                <path d="M28.4166667,20.6666667 L28.4166667,5.16666667 C28.4166667,3.74583333 27.2541667,2.58333333 25.8333333,2.58333333 L10.3333333,2.58333333 C8.9125,2.58333333 7.75,3.74583333 7.75,5.16666667 L7.75,20.6666667 C7.75,22.0875 8.9125,23.25 10.3333333,23.25 L25.8333333,23.25 C27.2541667,23.25 28.4166667,22.0875 28.4166667,20.6666667 Z M14.725,16.1845833 L16.8304167,19.0004167 L20.1629167,14.84125 C20.42125,14.5183333 20.9120833,14.5183333 21.1704167,14.84125 L24.99375,19.6204167 C25.3295833,20.0466667 25.0325,20.6666667 24.49,20.6666667 L11.625,20.6666667 C11.0954167,20.6666667 10.7854167,20.0595833 11.1083333,19.6333333 L13.6916667,16.1845833 C13.95,15.84875 14.4666667,15.84875 14.725,16.1845833 Z M2.58333333,9.04166667 L2.58333333,25.8333333 C2.58333333,27.2541667 3.74583333,28.4166667 5.16666667,28.4166667 L21.9583333,28.4166667 C22.66875,28.4166667 23.25,27.8354167 23.25,27.125 C23.25,26.4145833 22.66875,25.8333333 21.9583333,25.8333333 L6.45833333,25.8333333 C5.74791667,25.8333333 5.16666667,25.2520833 5.16666667,24.5416667 L5.16666667,9.04166667 C5.16666667,8.33125 4.58541667,7.75 3.875,7.75 C3.16458333,7.75 2.58333333,8.33125 2.58333333,9.04166667 Z" id="Shape" fill="#000000" fill-rule="nonzero"></path>
            </g>
        </g>
    </g>
</svg>