<?xml version="1.0" encoding="utf-8"?>
<!-- Generator: Adobe Illustrator 23.0.1, SVG Export Plug-In . SVG Version: 6.00 Build 0)  -->
<svg version="1.1" id="Слой_1" xmlns="http://www.w3.org/2000/svg" xmlns:xlink="http://www.w3.org/1999/xlink" x="0px" y="0px"
	 viewBox="0 0 124 138.2" style="enable-background:new 0 0 124 138.2;" xml:space="preserve">
<style type="text/css">
	.st0{fill:#AFAFAF;}
	.st1{fill:none;}
</style>
<title>Ресурс 1</title>
<g id="Слой_1-2">
	<path class="st0" d="M47,81.1l3.7-3.7l3.7,3.7l3.7-3.7l3.7,3.7l3.7-3.7l3.8,3.7l3.8-3.7l3.7,3.7l3.8-3.7l3.7,3.7V24.4
		c0-1.7-1.4-3.1-3.1-3.1c0,0,0,0,0,0H42.7c-1.7,0-3.1,1.4-3.1,3.1v56.8l3.7-3.7L47,81.1z M73.2,51.2c2.1,0,3.7,1.7,3.7,3.7
		c0,2.1-1.7,3.7-3.7,3.7c-2,0-3.7-1.6-3.7-3.7C69.5,52.9,71.1,51.2,73.2,51.2C73.2,51.2,73.2,51.2,73.2,51.2z M50.8,51.2
		c2.1,0,3.7,1.7,3.7,3.7c0,2.1-1.7,3.7-3.7,3.7c-2,0-3.7-1.6-3.7-3.7C47,52.9,48.7,51.2,50.8,51.2C50.7,51.2,50.8,51.2,50.8,51.2
		L50.8,51.2z M47,68c0-1,0.8-1.8,1.8-1.8h26.4c1,0,1.8,0.8,1.8,1.8v0.2c0,1-0.8,1.7-1.8,1.7H48.8c-1,0-1.8-0.8-1.8-1.8V68z"/>
	<g>
		<path class="st0" d="M71.8,84.9l-7,1.2c-1.4-1.5-3.7-1.7-5.3-0.3c-0.1,0.1-0.2,0.2-0.3,0.3l-7-1.2c-0.7-0.1-1.3,0.4-1.4,1.1
			c0,0.1,0,0.1,0,0.2V91c0,0.7,0.5,1.3,1.2,1.3c0.1,0,0.2,0,0.2,0l7-1.2c1.3,1.5,3.7,1.7,5.2,0.3c0.1-0.1,0.2-0.2,0.3-0.3l7,1.2
			c0.7,0.1,1.3-0.4,1.4-1.1c0-0.1,0-0.1,0-0.2v-4.8c0-0.7-0.5-1.3-1.2-1.3C71.9,84.9,71.8,84.9,71.8,84.9z"/>
		<path class="st0" d="M45.1,88.6h-5.8c-1.1,0-2,0.8-2.1,1.9c0,0.4,0.1,0.7,0.3,1.1l3.4,6.1L38,105c-0.4,1.1-0.2,2.4,0.7,3.3
			L62,129.8L47,90C46.7,89.2,45.9,88.7,45.1,88.6z"/>
		<path class="st0" d="M84.8,88.6h-5.8c-0.9,0-1.7,0.5-2,1.3l-15,39.9l23.3-21.5c0.9-0.8,1.2-2.1,0.7-3.3l-2.7-7.2l3.4-6.1
			c0.6-0.9,0.3-2.2-0.7-2.7C85.5,88.7,85.2,88.6,84.8,88.6z"/>
	</g>
	<rect y="0" class="st1" width="124" height="138.2"/>
</g>
</svg>
