<svg xmlns="http://www.w3.org/2000/svg" viewBox="0 0 18.38 50"><defs><style>.cls-1{fill:#e8bf42;}.cls-2{fill:#fff;}</style></defs><title>Ресурс 35</title><g id="Слой_2" data-name="Слой 2"><g id="Слой_6" data-name="Слой 6"><path class="cls-1" d="M.5,49.5V47a2.3,2.3,0,0,1,2.29-2.29h12.8A2.3,2.3,0,0,1,17.88,47V49.5Z"/><path class="cls-2" d="M15.59,45.22A1.79,1.79,0,0,1,17.38,47v2H1V47a1.79,1.79,0,0,1,1.79-1.79h12.8m0-1H2.79A2.79,2.79,0,0,0,0,47v3H18.38V47a2.79,2.79,0,0,0-2.79-2.79Z"/><path class="cls-1" d="M6.21,44.49l-.07-.41c-.32-1.7-1.37-7.42-1.54-9.6C4.47,32.86,4,29.16,3.27,28L3,27.48l.62-.21h.06l5.56-3.71,5.56,3.71.09,0,.59.2L15.1,28c-.69,1.14-1.19,4.84-1.32,6.46-.16,2.08-1.13,7.41-1.54,9.6l-.07.41Z"/><path class="cls-2" d="M9.19,24.15l5.34,3.56a.66.66,0,0,0,.15.05c-.82,1.33-1.29,5.4-1.4,6.68-.17,2.14-1.2,7.77-1.53,9.55H6.63c-.33-1.78-1.36-7.41-1.54-9.55-.1-1.28-.57-5.35-1.39-6.68a.66.66,0,0,0,.15-.05l5.34-3.56m0-1.2-.55.37L3.42,26.8h0l-1.19.4.66,1.07c.59,1,1.09,4.29,1.25,6.24.17,2.13,1.14,7.46,1.55,9.65L5.8,45h6.78l.15-.82c.41-2.19,1.38-7.52,1.55-9.65.16-2,.66-5.28,1.25-6.24l.65-1.06L15,26.81h0L9.74,23.32,9.19,23Z"/><path class="cls-1" d="M15,27.13l-5.7-3.81H9.14l-.05,0L3.45,27.11l-.49.6-.37-.66a3.19,3.19,0,0,1-.35-1.15L.51,15.37c0-2.35,2.17-3.9,6.14-4.46l.28-.81A6.22,6.22,0,0,1,4.6,5C4.6,2.16,6.27.5,9.19.5S13.78,2.16,13.78,5a6.22,6.22,0,0,1-2.33,5.06l.28.82c4,.58,6.15,2.09,6.15,4.37L16.14,25.92a3.22,3.22,0,0,1-.35,1.13l-.35.69Z"/><path class="cls-2" d="M9.19,1c2.26,0,4.09,1.1,4.09,4A5.56,5.56,0,0,1,10.85,9.9l.51,1.48c2.44.31,6,1.22,6,3.91L15.65,25.84a3,3,0,0,1-.31,1,.53.53,0,0,0-.13-.13L9.53,22.9h0a.85.85,0,0,0-.22-.09H9.2a.68.68,0,0,0-.28.07l-.07,0h0L3.17,26.69a.53.53,0,0,0-.13.13,3,3,0,0,1-.31-1L1,15.29c0-2.72,3.61-3.62,6-3.92l.5-1.47A5.57,5.57,0,0,1,5.09,5c0-2.94,1.84-4,4.1-4m0-1C6,0,4.09,1.89,4.09,5a6.88,6.88,0,0,0,2.25,5.24l-.06.18C2.22,11.1,0,12.8,0,15.29v.17L1.74,26a4,4,0,0,0,.41,1.28l.7,1.38.95-1.19,5.39-3.59,5.39,3.59.94,1.16.71-1.35A3.9,3.9,0,0,0,16.64,26l1.73-10.5v-.17c0-1.45-.83-3.95-6.27-4.82L12,10.28A6.87,6.87,0,0,0,14.28,5c0-3.15-1.9-5-5.09-5Z"/></g></g></svg>