<svg id="Capa_1" enable-background="new 0 0 512 512" height="512" viewBox="0 0 512 512" width="512" xmlns="http://www.w3.org/2000/svg"><path d="m186 402v30c-16.542 0-30 13.458-30 30v40c0 5.522 4.478 10 10 10h45c5.522 0 10-4.478 10-10s-4.478-10-10-10h-35v-30c0-5.514 4.486-10 10-10h140c5.514 0 10 4.486 10 10v30h-35c-5.522 0-10 4.478-10 10s4.478 10 10 10h45c5.522 0 10-4.478 10-10v-40c0-16.542-13.458-30-30-30v-30c0-16.542-13.458-30-30-30v-22.46c0-20.389 4.822-40.814 13.945-59.069 10.503-21.017 16.055-44.535 16.055-68.011v-30.1l28.944-57.889c1.925-3.85 1.17-8.499-1.873-11.543l-30-30c-1.876-1.874-4.419-2.928-7.071-2.928h-120c-2.652 0-5.195 1.054-7.071 2.929l-30 30c-3.043 3.044-3.798 7.693-1.873 11.543l28.944 57.888v30.1c0 23.476 5.552 46.994 16.055 68.011 9.123 18.255 13.945 38.68 13.945 59.069v22.46c-16.542 0-30 13.458-30 30zm120 0v30h-100v-30c0-5.514 4.486-10 10-10h80c5.514 0 10 4.486 10 10zm-105.857-292h111.715l21.975 21.975-22.304 44.609-51.056-25.528c-2.787-1.393-6.165-1.389-8.943 0l-51.056 25.528-22.304-44.609zm19.802 171.529c-9.123-18.255-13.945-38.68-13.945-59.069v-26.279l40-20v79.819c0 5.522 4.478 10 10 10s10-4.478 10-10v-79.819l40 20v26.279c0 20.389-4.822 40.814-13.945 59.069-10.503 21.017-16.055 44.535-16.055 68.011v22.46h-40v-22.46c0-23.476-5.552-46.994-16.055-68.011z"/><path d="m296 40c0-22.056-17.944-40-40-40s-40 17.944-40 40 17.944 40 40 40 40-17.944 40-40zm-60 0c0-11.028 8.972-20 20-20s20 8.972 20 20-8.972 20-20 20-20-8.972-20-20z"/><circle cx="256" cy="502" r="10"/></svg>