<?xml version="1.0" encoding="UTF-8"?>
<svg width="38px" height="38px" viewBox="0 0 38 38" version="1.1" xmlns="http://www.w3.org/2000/svg" xmlns:xlink="http://www.w3.org/1999/xlink">
    <!-- Generator: Sketch 52.4 (67378) - http://www.bohemiancoding.com/sketch -->
    <title>Без названия</title>
    <desc>Created with Sketch.</desc>
    <g id="Page-1" stroke="none" stroke-width="1" fill="none" fill-rule="evenodd">
        <g id="Без-названия" fill="#3BAF61" fill-rule="nonzero">
            <path d="M18.9494681,37.8989362 C8.46409574,37.8989362 0,29.4348404 0,18.9494681 C0,8.46409574 8.46409574,0 18.9494681,0 C29.4348404,0 37.8989362,8.46409574 37.8989362,18.9494681 C37.8989362,29.4348404 29.4348404,37.8989362 18.9494681,37.8989362 Z M18.9494681,2.52659574 C9.8537234,2.52659574 2.52659574,9.8537234 2.52659574,18.9494681 C2.52659574,28.0452128 9.8537234,35.3723404 18.9494681,35.3723404 C28.0452128,35.3723404 35.3723404,28.0452128 35.3723404,18.9494681 C35.3723404,9.8537234 28.0452128,2.52659574 18.9494681,2.52659574 Z M13.3404255,16.9787234 C14.4567458,16.9787234 15.3617021,16.073767 15.3617021,14.9574468 C15.3617021,13.8411266 14.4567458,12.9361702 13.3404255,12.9361702 C12.2241053,12.9361702 11.3191489,13.8411266 11.3191489,14.9574468 C11.3191489,16.073767 12.2241053,16.9787234 13.3404255,16.9787234 Z M24.4574468,16.9787234 C25.573767,16.9787234 26.4787234,16.073767 26.4787234,14.9574468 C26.4787234,13.8411266 25.573767,12.9361702 24.4574468,12.9361702 C23.3411266,12.9361702 22.4361702,13.8411266 22.4361702,14.9574468 C22.4361702,16.073767 23.3411266,16.9787234 24.4574468,16.9787234 Z M26.0239362,25.3922872 C26.5292553,25.0132979 26.6555851,24.1289894 26.2765957,23.6236702 C25.8976064,23.1183511 25.0132979,22.9920213 24.5079787,23.3710106 C22.7393617,24.6343085 20.9707447,25.2659574 18.9494681,25.2659574 C16.9281915,25.2659574 15.0332447,24.6343085 13.2646277,23.2446809 C12.7593085,22.8656915 11.875,22.9920213 11.4960106,23.4973404 C11.1170213,24.0026596 11.2433511,24.8869681 11.7486702,25.2659574 C13.8962766,26.9082447 16.4228723,27.7925532 18.9494681,27.7925532 C21.4760638,27.7925532 23.8763298,27.0345745 26.0239362,25.3922872 Z" id="Shape"></path>
        </g>
    </g>
</svg>