<?xml version="1.0" encoding="UTF-8"?>
<svg width="118px" height="30px" viewBox="0 0 118 30" version="1.1" xmlns="http://www.w3.org/2000/svg" xmlns:xlink="http://www.w3.org/1999/xlink">
    <!-- Generator: Sketch 52.4 (67378) - http://www.bohemiancoding.com/sketch -->
    <title>logo_default</title>
    <desc>Created with Sketch.</desc>
    <g id="Page-1" stroke="none" stroke-width="1" fill="none" fill-rule="evenodd">
        <g id="1440-новое--иви-обзор-кино-copy-5" transform="translate(-1018.000000, -642.000000)" fill="#B74746">
            <g id="logo_default" transform="translate(1018.000000, 642.000000)">
                <path d="M0,14.7619048 C0,22.8247619 6.49285024,29.3333333 14.5362319,29.3333333 C22.5796135,29.3333333 29.0724638,22.8247619 29.0724638,14.7619048 C29.0724638,6.69904762 22.5796135,0.19047619 14.5362319,0.19047619 C6.49285024,0.19047619 0,6.69904762 0,14.7619048 Z M5.03922705,14.7619048 C5.03922705,9.71047619 8.91555556,5.63047619 13.8578744,5.24190476 L13.8578744,10.2933333 C11.7258937,10.5847619 10.0784541,12.4304762 10.0784541,14.6647619 C10.0784541,17.0933333 12.0166184,19.1333333 14.5362319,19.1333333 C17.0558454,19.1333333 18.9940097,17.1904762 18.9940097,14.6647619 C18.9940097,12.4304762 17.34657,10.5847619 15.2145894,10.2933333 L15.2145894,5.24190476 C20.1569082,5.53333333 24.0332367,9.71047619 24.0332367,14.7619048 C24.0332367,20.007619 19.7692754,24.2819048 14.5362319,24.2819048 C9.30318841,24.2819048 5.03922705,20.007619 5.03922705,14.7619048 Z M12.5980676,2.71619048 C12.5980676,1.64761905 13.4702415,0.773333333 14.5362319,0.773333333 C15.6022222,0.773333333 16.4743961,1.64761905 16.4743961,2.71619048 C16.4743961,3.7847619 15.6022222,4.65904762 14.5362319,4.65904762 C13.4702415,4.65904762 12.5980676,3.7847619 12.5980676,2.71619048 Z" id="Shape" fill-rule="nonzero"></path>
                <path d="M38.3832528,17.5238095 L34.2979066,17.5238095 C33.6328502,17.5238095 33.252818,17.1428571 33.252818,16.4761905 L33.252818,12.3809524 C33.252818,11.6190476 33.6328502,11.3333333 34.2979066,11.3333333 L38.3832528,11.3333333 C39.0483092,11.3333333 39.4283414,11.7142857 39.4283414,12.3809524 L39.4283414,16.4761905 C39.4283414,17.1428571 39.0483092,17.5238095 38.3832528,17.5238095 Z M41.8985507,12.1904762 C41.8985507,9.9047619 40.7584541,8.76190476 38.5732689,8.76190476 L34.1078905,8.76190476 C31.8276973,8.76190476 30.7826087,9.9047619 30.7826087,12.1904762 L30.7826087,16.4761905 C30.7826087,18.7619048 31.9227053,19.9047619 34.1078905,19.9047619 L38.5732689,19.9047619 C40.7584541,19.9047619 41.8985507,18.7619048 41.8985507,16.4761905 L41.8985507,12.1904762 Z" id="Shape" fill-rule="nonzero"></path>
                <polygon id="Path" points="54.7246377 8.76190476 43.6086957 8.76190476 43.6086957 11.2171106 47.979066 11.2171106 47.979066 19.9047619 50.4492754 19.9047619 50.4492754 11.2171106 54.7246377 11.2171106"></polygon>
                <path d="M67.5507246,12.0669895 C67.5507246,9.89507667 66.5144928,8.76190476 64.442029,8.76190476 L56.4347826,8.76190476 L56.4347826,11.2171106 L63.9710145,11.2171106 C64.7246377,11.2171106 65.1014493,11.5004036 65.1014493,12.1614205 C65.1014493,12.8224374 64.7246377,13.1057304 63.9710145,13.1057304 L60.7681159,13.1057304 L60.7681159,15.5609362 L63.9710145,15.5609362 C64.7246377,15.5609362 65.1014493,15.8442292 65.1014493,16.5052462 C65.1014493,17.1662631 64.7246377,17.4495561 63.9710145,17.4495561 L56.4347826,17.4495561 L56.4347826,19.9047619 L63.9710145,19.9047619 C66.326087,19.9047619 67.5507246,18.960452 67.5507246,16.9774011 C67.5507246,16.0330912 67.3623188,15.0887813 66.8913043,14.4277643 C67.3623188,13.4834544 67.5507246,12.7280065 67.5507246,12.0669895 Z" id="Path"></path>
                <path d="M76.0064412,17.5238095 L71.921095,17.5238095 C71.2560386,17.5238095 70.8760064,17.1428571 70.8760064,16.4761905 L70.8760064,12.3809524 C70.8760064,11.6190476 71.2560386,11.3333333 71.921095,11.3333333 L76.0064412,11.3333333 C76.6714976,11.3333333 77.0515298,11.7142857 77.0515298,12.3809524 L77.0515298,16.4761905 C77.0515298,17.1428571 76.6714976,17.5238095 76.0064412,17.5238095 Z M79.5217391,12.1904762 C79.5217391,9.9047619 78.3816425,8.76190476 76.1964573,8.76190476 L71.7310789,8.76190476 C69.4508857,8.76190476 68.4057971,9.9047619 68.4057971,12.1904762 L68.4057971,16.4761905 C68.4057971,18.7619048 69.5458937,19.9047619 71.7310789,19.9047619 L76.1964573,19.9047619 C78.3816425,19.9047619 79.5217391,18.7619048 79.5217391,16.4761905 L79.5217391,12.1904762 Z" id="Shape" fill-rule="nonzero"></path>
                <path d="M89.8776167,16.5714286 C89.8776167,15.9047619 89.4975845,15.6190476 88.8325282,15.6190476 L83.7020934,15.6190476 L83.7020934,17.5238095 L88.8325282,17.5238095 C89.4975845,17.5238095 89.8776167,17.1428571 89.8776167,16.5714286 Z M89.8776167,12.1904762 C89.8776167,11.5238095 89.4975845,11.2380952 88.8325282,11.2380952 L83.7020934,11.2380952 L83.7020934,13.1428571 L88.8325282,13.1428571 C89.4975845,13.1428571 89.8776167,12.8571429 89.8776167,12.1904762 Z M92.3478261,16.5714286 C92.3478261,18.8571429 91.2077295,19.9047619 89.0225443,19.9047619 L81.2318841,19.9047619 L81.2318841,8.76190476 L89.0225443,8.76190476 C91.2077295,8.76190476 92.3478261,9.9047619 92.3478261,12.0952381 C92.3478261,13.1428571 92.0628019,13.9047619 91.6827697,14.2857143 C92.0628019,14.8571429 92.3478261,15.6190476 92.3478261,16.5714286 Z" id="Shape" fill-rule="nonzero"></path>
                <polygon id="Path" points="105.173913 19.9047619 102.703704 19.9047619 102.703704 12.1614205 96.5281804 19.9047619 94.057971 19.9047619 94.057971 8.76190476 96.5281804 8.76190476 96.5281804 16.5052462 102.703704 8.76190476 105.173913 8.76190476"></polygon>
                <polygon id="Path" points="113.311353 14.3333333 118 8.76190476 115.007246 8.76190476 111.316184 13.1057304 108.622705 13.1057304 108.622705 8.76190476 106.028986 8.76190476 106.028986 19.9047619 108.622705 19.9047619 108.622705 15.5609362 111.316184 15.5609362 115.007246 19.9047619 118 19.9047619"></polygon>
            </g>
        </g>
    </g>
</svg>