<?xml version="1.0" encoding="UTF-8"?>
<svg width="144px" height="34px" viewBox="0 0 144 34" version="1.1" xmlns="http://www.w3.org/2000/svg" xmlns:xlink="http://www.w3.org/1999/xlink">
    <!-- Generator: Sketch 52.4 (67378) - http://www.bohemiancoding.com/sketch -->
    <title>Group 56</title>
    <desc>Created with Sketch.</desc>
    <defs>
        <polygon id="path-1" points="0 0.0210359712 143.771398 0.0210359712 143.771398 33.7552 0 33.7552"></polygon>
    </defs>
    <g id="Page-1" stroke="none" stroke-width="1" fill="none" fill-rule="evenodd">
        <g id="1440-новое--иви-обзор-кино-copy-5" transform="translate(-768.000000, -3545.000000)">
            <g id="Group-56" transform="translate(768.000000, 3545.000000)">
                <g id="Group-3" transform="translate(0.000000, 0.223568)">
                    <mask id="mask-2" fill="white">
                        <use xlink:href="#path-1"></use>
                    </mask>
                    <g id="Clip-2"></g>
                    <path d="M138.116219,6.98619281 C139.203675,7.23324317 138.97704,8.04802014 138.995866,8.76202014 C139.0032,9.03450935 138.777543,9.51124317 139.281665,9.52078273 C139.657434,9.52836547 139.594602,9.10202014 139.566731,8.84371799 C139.480918,8.05462446 139.557686,7.36043741 140.833883,6.98619281 L138.116219,6.98619281 Z M94.4485243,18.5951137 C94.4485243,15.8667971 94.4719946,13.1379914 94.432144,10.410164 C94.4218757,9.70814964 94.6362866,9.5244518 95.316436,9.54940144 C96.7390778,9.60101295 98.169054,9.49656691 99.587784,9.58902734 C100.544687,9.65115683 100.821197,9.32412086 100.687709,8.43204892 C100.583071,7.73174676 101.07937,6.83673957 99.6254343,6.87073957 C95.4760829,6.96809209 91.3230642,6.90498417 87.1715124,6.90498417 C85.3767688,6.90498417 85.4234649,6.90498417 85.4183307,8.72581871 C85.4163749,9.48458129 85.7212441,9.59122878 86.3522526,9.57508489 C87.6538757,9.5415741 88.9691898,9.67610647 90.2558995,9.53399137 C91.5746363,9.38820719 91.7479742,9.91997698 91.7345277,11.074754 C91.6741406,16.2862935 91.7232815,21.4993007 91.6905209,26.7115741 C91.6861202,27.4412288 91.8301202,27.7917468 92.6153969,27.6723799 C92.8938621,27.6300633 93.1887076,27.6325094 93.4681508,27.6718906 C94.2776312,27.7856317 94.486908,27.4654446 94.4697942,26.6577612 C94.4130744,23.9710273 94.4485243,21.2828259 94.4485243,18.5951137 Z M64.7669216,27.6197899 C64.6344122,27.2399194 64.5512883,26.9740345 64.4503171,26.714754 C62.003784,20.4342935 59.5240014,14.1663079 57.1398112,7.86187626 C56.7623307,6.86389065 56.1582153,6.94143022 55.3851626,6.88296978 C54.5698146,6.82108489 54.2827925,7.18481151 54.0189963,7.88731511 C52.1768231,12.7891856 50.2864869,17.6727108 48.4152204,22.5640633 C47.7815226,24.2202791 47.159071,25.8808978 46.4838112,27.6657755 C47.0837705,27.6657755 47.536307,27.5953295 47.9580387,27.6792288 C49.1220183,27.9108691 49.6038927,27.3292 49.9410336,26.3101784 C50.4380659,24.8080633 51.0925447,23.3587827 51.6132917,21.8635165 C51.8098553,21.2992144 52.0822085,21.120164 52.6662764,21.1341065 C54.618711,21.1803367 56.572857,21.1947683 58.5255362,21.1688403 C59.1949284,21.1602791 59.5570065,21.3743079 59.7745956,22.0249554 C60.1466975,23.1391281 60.6046126,24.224682 61.0265888,25.3222216 C61.9600217,27.7511424 61.9600217,27.7511424 64.7669216,27.6197899 Z M83.2644428,27.5456748 C83.2805786,27.4167683 83.3016041,27.3707827 83.2876686,27.340941 C82.0831049,24.7655022 80.8741406,22.1917755 79.6705548,19.6158475 C79.476925,19.2012432 79.161054,18.8908403 79.8834988,18.4887108 C82.4625413,17.0536173 83.4900998,14.7232719 82.9945345,11.8075885 C82.5911389,9.43517122 80.731363,7.61678273 77.9767823,7.13931511 C74.8706363,6.60094101 71.7214615,7.02288345 68.59429,6.89886906 C68.0263579,6.87636547 68.0510506,7.21049496 68.0512951,7.5979482 C68.0549623,14.0337324 68.052762,20.4695165 68.0574071,26.9053007 C68.0574071,27.1731424 67.9542357,27.5985094 68.312891,27.6268835 C69.0764088,27.6877899 69.8956686,27.7775597 70.6024666,27.5615741 C71.0576924,27.4226388 70.7850947,26.6797755 70.7865616,26.2162504 C70.8041643,21.002754 70.7921847,15.7887683 70.8078316,10.5752719 C70.8092985,10.1653151 70.5230098,9.53276835 71.399234,9.55551655 C73.3110846,9.60492662 75.231981,9.51515683 77.1335633,9.67072518 C79.2581134,9.84439424 80.3741745,11.1943655 80.3428808,13.2390129 C80.312565,15.2274014 79.1278044,16.4690129 76.9538689,16.6522216 C75.7400149,16.7544662 74.5132034,16.7006532 73.2925039,16.7202216 C72.9348265,16.7260921 72.5942628,16.6632288 72.48938,17.2082072 C72.1573732,18.9326676 72.4725107,19.3546101 74.2071117,19.3548547 C74.6955871,19.3548547 75.190908,19.4057324 75.671071,19.3426245 C76.3517093,19.2526101 76.6773596,19.5297468 76.9472679,20.143459 C77.6990506,21.8532432 78.6982492,23.4732576 79.2759606,25.2351424 C79.9336177,27.2411424 81.0985752,28.0008835 83.1091966,27.6078043 C83.1485582,27.599977 83.1847416,27.5782072 83.2644428,27.5456748 Z M128.553298,24.6290129 C128.299281,24.0463655 128.1301,23.692423 127.987811,23.3282072 C125.963254,18.1430849 123.935764,12.958941 121.928076,7.76696978 C121.695574,7.16548777 121.522725,6.74843741 120.692463,6.75871079 C116.172721,6.81374676 111.652001,6.80396259 107.132259,6.76555971 C106.389767,6.7592 106.229876,7.01652374 106.272416,7.67328633 C106.309088,8.24027914 106.147974,8.80335827 107.086541,8.76128633 C108.630935,8.69230791 110.184375,8.80580432 111.727057,8.71896978 C112.655356,8.66662446 112.862922,8.94498417 112.855343,9.85246619 C112.809624,15.4338475 112.846297,21.0159626 112.816959,26.5978331 C112.812803,27.3702935 112.885169,27.7420921 113.824959,27.7381784 C114.748613,27.7340201 114.84885,27.3893727 114.84445,26.603459 C114.8134,21.062682 114.84445,15.5214158 114.810956,9.98039424 C114.805332,9.09076835 114.929774,8.61917122 115.983003,8.72068201 C117.032076,8.8217036 118.102419,8.79822158 119.155893,8.72484029 C119.977842,8.66760288 120.356545,8.93911367 120.657013,9.73212086 C122.816769,15.4328691 125.047913,21.1067108 127.22136,26.8023223 C127.475377,27.4671568 127.779023,27.7244806 128.516626,27.7315741 C129.275743,27.738423 129.54663,27.4507683 129.795512,26.7822647 C131.02868,23.4683655 132.329815,20.1796604 133.596966,16.878236 C134.761679,13.842941 135.919057,10.8044662 137.063478,7.76158849 C137.17374,7.46953094 137.586915,7.12219281 137.099906,6.82206331 C136.495057,6.44977554 135.321298,6.91427914 135.049679,7.61971799 C134.247044,9.70325755 133.455655,11.7914446 132.659132,13.8776748 C131.319859,17.3853007 129.980341,20.8929266 128.553298,24.6290129 Z M8.57782818,27.9915885 C8.7572781,27.9813151 9.16947504,27.9937899 9.5692034,27.9292144 C12.0568095,27.5283079 14.1926058,26.5268978 15.3027993,24.1128978 C16.9603885,20.508164 14.2485922,16.2769986 10.0302968,15.779718 C8.61621188,15.6128978 7.19821528,15.4609986 5.79586553,15.2217755 C4.64606587,15.0256029 3.72216774,14.4588547 3.46717284,13.2015885 C3.20655484,11.9169266 3.65102343,10.871977 4.66733582,10.079459 C7.28622886,8.03725755 11.5788469,9.44764604 12.4562934,12.6172288 C12.5298825,12.8831137 12.3817263,13.3507971 12.8992951,13.3466388 C13.6699029,13.3407683 14.6270506,13.5770561 15.1563545,13.2089266 C15.6355396,12.8757755 15.1001236,11.9298906 14.971037,11.2635885 C14.9108944,10.9536748 14.7165311,10.6689554 14.5779097,10.374941 C12.7037093,6.4023223 7.1828129,5.84413525 4.03339355,7.3768259 C1.4832,8.6179482 0.266656706,10.8193871 0.606731409,13.5190849 C0.889597284,15.7650417 2.60048353,17.432754 5.29345467,17.9950993 C6.32492496,18.2103511 7.38426621,18.2918043 8.43187233,18.4282935 C9.60318642,18.5809266 10.7776788,18.6983367 11.7531626,19.4891424 C13.0692102,20.5565957 13.3198044,22.4772288 12.1819844,23.7207971 C10.6730404,25.3694302 8.68833413,25.5005381 6.65302003,25.1700777 C4.70376367,24.8533151 3.33099626,23.7281353 2.98114228,21.7541784 C2.80022547,20.734423 2.32715246,20.6145669 1.52036129,20.6957755 C1.27832394,20.7197468 1.02870764,20.7251281 0.788381664,20.6947971 C0.0422220713,20.5998906 -0.068283871,20.904423 0.0309758913,21.604236 C0.597685569,25.585905 3.9422017,28.1801784 8.57782818,27.9915885 Z M31.4151525,0.0316028777 C29.9304122,0.844667626 28.4317365,1.63327194 26.9643545,2.47617842 C24.5261338,3.87604892 21.9820523,5.0934446 19.6602051,6.69511367 C19.4061881,6.77216403 19.4193902,6.98472518 19.4193902,7.18383309 C19.4176788,13.1573151 19.420857,19.1307971 19.4096109,25.1042791 C19.4086329,25.5149698 19.5306295,25.7837899 19.8839063,25.9983079 C20.641801,26.4579194 21.3806261,26.9493295 22.1270302,27.4277755 C25.2167959,29.5736892 28.2434852,31.8125525 31.4706499,33.7552 C34.6987925,31.8790849 37.6782968,29.6348403 40.7289453,27.4955309 C41.3993154,27.3739626 41.802711,26.7908259 42.3836007,26.5278763 C43.3964903,26.0692432 43.6820455,25.3459482 43.668599,24.2290849 C43.6030778,18.7866388 43.6463511,13.3427252 43.6236143,7.89954532 C43.6219029,7.50402014 43.8969453,7.01163165 43.4006465,6.6909554 C43.3754649,6.61341583 43.3224122,6.57868201 43.2412441,6.58699856 C39.8275396,4.63799137 36.4206805,2.67748777 32.9930404,0.753919424 C32.4947857,0.474581295 32.0904122,-0.0611021583 31.4151525,0.0316028777 Z M143.361584,9.37940144 C143.414147,9.46085468 143.466467,9.54255252 143.51903,9.62425036 C143.567682,9.5415741 143.616334,9.45914245 143.664986,9.37646619 C143.691635,8.82659568 143.744198,8.27623597 143.733441,7.72709928 C143.727818,7.45094101 143.926093,7.0483223 143.468178,6.93164604 C142.882888,6.78243741 142.86993,7.2748259 142.743533,7.62852374 C142.550636,7.86481151 142.646229,8.28602014 142.246501,8.40343022 C142.071207,8.04997698 141.898358,7.70068201 141.725265,7.35163165 C141.738711,6.95586187 141.493495,6.88492662 141.172246,6.91330072 C140.817747,6.94461007 140.851241,7.21538705 140.857842,7.45118561 C140.875933,8.09327194 140.906249,8.73511367 140.931675,9.3769554 C140.979105,9.45547338 141.021645,9.59612086 141.074942,9.60027914 C141.221142,9.61104173 141.351207,9.54597698 141.317468,9.35127194 C141.303777,9.01225036 141.290086,8.67347338 141.276884,8.3346964 C141.93063,8.22437986 141.68737,8.84665324 141.884422,9.10593381 C142.020599,9.28473957 142.020354,9.60027914 142.326935,9.58486906 C142.633027,9.5697036 142.586086,9.1729554 142.732531,9.08025036 C142.996327,8.9126964 142.6032,8.08299856 143.35156,8.46727194 C143.287506,8.77204892 143.219295,9.0768259 143.361584,9.37940144 Z" id="Fill-1" fill="#000000" mask="url(#mask-2)"></path>
                </g>
                <path d="M8.57777929,28.2151568 C3.94239728,28.4037468 0.597636672,25.8094734 0.0311714771,21.8278043 C-0.0683327674,21.1279914 0.0421731749,20.823459 0.788332767,20.9183655 C1.02890323,20.9486964 1.27851952,20.9433151 1.52031239,20.9193439 C2.32710357,20.8381353 2.80017657,20.9579914 2.98109338,21.9777468 C3.33119185,23.9517036 4.70371477,25.0768835 6.65297114,25.393646 C8.68852971,25.7241065 10.6729915,25.5929986 12.1819355,23.9443655 C13.3197555,22.7007971 13.0694058,20.780164 11.7531138,19.7127108 C10.7776299,18.921905 9.60313752,18.804495 8.43182343,18.6518619 C7.38421732,18.5153727 6.32487606,18.4339194 5.29340577,18.2186676 C2.60043463,17.6563223 0.889548387,15.9886101 0.606682513,13.7426532 C0.26660781,11.0429554 1.4831511,8.84151655 4.03334465,7.60039424 C7.18276401,6.0677036 12.7036604,6.62589065 14.5778608,10.5985094 C14.7164822,10.8925237 14.9108455,11.1772432 14.9709881,11.4871568 C15.1000747,12.153459 15.6354907,13.0993439 15.1563056,13.432495 C14.6270017,13.8006245 13.6700985,13.5643367 12.8992462,13.5702072 C12.3816774,13.5743655 12.5298336,13.106682 12.4562445,12.8407971 C11.578798,9.67121439 7.28617997,8.2608259 4.66728693,10.3030273 C3.65121902,11.0955453 3.20650594,12.140495 3.46712394,13.4251568 C3.72211885,14.682423 4.64601698,15.2491712 5.79606112,15.4453439 C7.19816638,15.6845669 8.61616299,15.8364662 10.0302479,16.0032863 C14.2485433,16.5005669 16.960584,20.7317324 15.3027504,24.3364662 C14.1925569,26.7504662 12.0567606,27.7518763 9.5691545,28.1527827 C9.16942615,28.2173583 8.7572292,28.2048835 8.57777929,28.2151568" id="Fill-4" fill="#F7F7F7"></path>
                <path d="M128.553225,24.8525568 C129.980268,21.1164705 131.319785,17.6088446 132.659059,14.1012187 C133.455582,12.0149885 134.24697,9.92680144 135.049605,7.84326187 C135.32147,7.13782302 136.494984,6.67331942 137.099833,7.04560719 C137.586841,7.34573669 137.173667,7.69307482 137.06365,7.98513237 C135.918984,11.0280101 134.76185,14.0664849 133.596892,17.1017799 C132.329741,20.4034489 131.028607,23.6919094 129.795439,27.0058086 C129.546556,27.6743122 129.27567,27.9619669 128.516797,27.955118 C127.77895,27.9480245 127.475303,27.6909453 127.221531,27.0258662 C125.04784,21.3302547 122.816695,15.6564129 120.65694,9.95566475 C120.356716,9.16265755 119.977768,8.89114676 119.155819,8.94838417 C118.102346,9.02176547 117.032003,9.04524748 115.98293,8.9442259 C114.929701,8.84271511 114.805504,9.31431223 114.810882,10.2039381 C114.844621,15.7449597 114.813327,21.2862259 114.844376,26.8270029 C114.848777,27.6129165 114.748539,27.957564 113.824886,27.9617223 C112.885096,27.9658806 112.812729,27.5938374 112.816886,26.821377 C112.846223,21.2395065 112.809551,15.6573914 112.855269,10.0760101 C112.862848,9.16852806 112.655527,8.89016835 111.726984,8.94251367 C110.184302,9.02959281 108.631106,8.9158518 107.086468,8.98483022 C106.147901,9.02690216 106.309259,8.46382302 106.272342,7.89683022 C106.229802,7.24006763 106.389938,6.98274388 107.132186,6.9891036 C111.651928,7.02750647 116.172648,7.03729065 120.692634,6.98225468 C121.522651,6.97198129 121.6955,7.38903165 121.928003,7.99051367 C123.93569,13.1824849 125.963181,18.3666288 127.987738,23.5517511 C128.130271,23.9159669 128.299208,24.2699094 128.553225,24.8525568" id="Fill-6" fill="#F4F4F4"></path>
                <path d="M83.264345,27.7691942 C83.1848883,27.8017266 83.1484604,27.823741 83.1093433,27.8313237 C81.0984774,28.2244029 79.9335199,27.4646619 79.2761073,25.4589065 C78.6983959,23.6970216 77.6989528,22.0770072 76.9474146,20.3669784 C76.6775063,19.7532662 76.351856,19.4763741 75.6709732,19.5661439 C75.1910547,19.6294964 74.6957338,19.5786187 74.2070139,19.5786187 C72.4724129,19.5783741 72.1572754,19.1561871 72.4892822,17.4317266 C72.594165,16.8867482 72.9347287,16.9498561 73.2924061,16.943741 C74.5133501,16.9241727 75.7401616,16.9779856 76.9537711,16.875741 C79.1277066,16.6925324 80.3127117,15.4511655 80.3430275,13.462777 C80.3740767,11.4178849 79.2582601,10.0679137 77.1334655,9.8942446 C75.2318832,9.73867626 73.3109868,9.82844604 71.3993806,9.77903597 C70.5229121,9.75628777 70.8092007,10.3888345 70.8079783,10.7987914 C70.7923314,16.0125324 70.8040666,21.2262734 70.7864638,26.4397698 C70.7849969,26.903295 71.057839,27.6461583 70.6023688,27.7850935 C69.8955708,28.0010791 69.076311,27.9113094 68.3127932,27.8504029 C67.9541379,27.8220288 68.0575538,27.3969065 68.0573093,27.1288201 C68.0529087,20.693036 68.0548645,14.2574964 68.0511973,7.82146763 C68.0509528,7.43401439 68.0262601,7.09988489 68.5941922,7.12238849 C71.7213637,7.24664748 74.8705385,6.82446043 77.9766846,7.36283453 C80.7315097,7.84030216 82.5912856,9.65869065 82.9944367,12.0311079 C83.4902465,14.9467914 82.4626879,17.2771367 79.883401,18.7124748 C79.1612007,19.1143597 79.4768272,19.4247626 79.670457,19.8393669 C80.8740428,22.415295 82.0830071,24.9890216 83.2878153,27.5644604 C83.3017508,27.5943022 83.2804808,27.6405324 83.264345,27.7691942" id="Fill-8" fill="#F7F7F7"></path>
                <path d="M55.5775701,11.5889856 C54.6729861,13.9525971 53.8730404,16.0711151 53.0476686,18.1793597 C52.8469487,18.6920504 52.8929114,18.9173309 53.5136516,18.9075468 C55.092762,18.8825971 56.6723613,18.8992302 58.4257874,18.8992302 C57.4691287,16.4436475 56.5657671,14.1247986 55.5775701,11.5889856 M64.7669216,27.8434317 C61.9600217,27.9745396 61.9600217,27.9745396 61.0265888,25.5458633 C60.6046126,24.4480791 60.1466975,23.3627698 59.7745956,22.2485971 C59.5570065,21.5979496 59.1949284,21.3839209 58.5255362,21.392482 C56.572857,21.4184101 54.618711,21.4039784 52.6662764,21.3577482 C52.0822085,21.3438058 51.8098553,21.5226115 51.6132917,22.0871583 C51.0925447,23.5821799 50.4380659,25.031705 49.9410336,26.5338201 C49.6038927,27.5528417 49.1220183,28.1345108 47.9580387,27.9026259 C47.536307,27.8189712 47.0837705,27.8894173 46.4838112,27.8894173 C47.159071,26.1045396 47.7815226,24.4439209 48.4152204,22.7874604 C50.2864869,17.8963525 52.1768231,13.0125827 54.0189963,8.11071223 C54.2827925,7.40820863 54.5698146,7.04472662 55.3851626,7.10661151 C56.1582153,7.16507194 56.7623307,7.08753237 57.1398112,8.08551799 C59.5240014,14.389705 62.003784,20.6576906 64.4503171,26.9383957 C64.5512883,27.1976763 64.6344122,27.4633165 64.7669216,27.8434317" id="Fill-10" fill="#F7F7F7"></path>
                <path d="M94.4484509,18.818682 C94.4484509,21.5063942 94.413001,24.1948403 94.4697209,26.8813295 C94.4868346,27.6890129 94.2775579,28.0092 93.4680774,27.895459 C93.1888788,27.8560777 92.8940333,27.8538763 92.6153236,27.8959482 C91.8300469,28.0153151 91.6860469,27.6647971 91.690692,26.9351424 C91.7234526,21.7228691 91.6740672,16.5101065 91.7344543,11.2983223 C91.7479008,10.1435453 91.574563,9.61177554 90.2560706,9.75755971 C88.9691165,9.89967482 87.6538024,9.76514245 86.3521793,9.79865324 C85.7211708,9.81479712 85.4163015,9.70814964 85.4182574,8.94938705 C85.4233915,7.12855252 85.3769399,7.12855252 87.171439,7.12855252 C91.3229908,7.12855252 95.4760095,7.19166043 99.625361,7.09430791 C101.079296,7.06030791 100.583242,7.95531511 100.68788,8.65561727 C100.821123,9.54768921 100.544858,9.87472518 99.5877107,9.81259568 C98.1692251,9.72013525 96.7390044,9.82458129 95.3163626,9.77296978 C94.6364577,9.74802014 94.4220469,9.93171799 94.4323151,10.6337324 C94.4721657,13.3615597 94.4484509,16.0903655 94.4484509,18.818682" id="Fill-12" fill="#F7F7F7"></path>
                <path d="M22.1269569,27.6514173 C21.3805528,27.1729712 20.6417277,26.6815612 19.8840774,26.221705 C19.5305562,26.0071871 19.4085596,25.7386115 19.4095375,25.3279209 C19.4210282,19.3544388 19.4176054,13.3809568 19.4193168,7.40723022 C19.4193168,7.20836691 19.4061148,6.99580576 19.6603762,6.91851079 L19.6833576,6.919 C20.2349093,7.6158777 21.0925528,7.83235252 21.8186649,8.24084173 C25.0018228,10.0298777 28.2126071,11.7702374 31.4131233,13.5284532 C31.491602,13.5524245 31.5700808,13.5766403 31.6483151,13.6011007 C31.6412251,14.8001511 31.6338907,15.999446 31.6270452,17.1984964 C31.5935511,17.232741 31.554434,17.2596475 31.5096937,17.2787266 C28.4321521,15.5686978 25.354366,13.8586691 22.1819654,12.0960504 L22.1819654,23.8377914 C22.0919959,24.543964 22.0751267,25.2498921 22.1900333,25.9548417 C22.1690078,26.5206115 22.1479823,27.0858921 22.1269569,27.6514173" id="Fill-14" fill="#FDFDFD"></path>
                <path d="M41.0744475,25.5381338 C41.267344,25.2619755 41.2441182,25.0014719 41.0979178,24.7152849 C40.9091776,24.992177 40.9365596,25.2529252 41.0744475,25.5381338 M31.6266784,17.1985942 C31.6337684,15.9995439 31.6411029,14.8002489 31.6484374,13.600954 C35.4772727,11.4447669 39.306108,9.28857986 43.1349433,7.13263741 C43.2236903,7.05998993 43.3121929,6.98734245 43.4006954,6.91445036 C43.8969942,7.23537122 43.6217073,7.72775971 43.6234187,8.12328489 C43.6464,13.5664647 43.6028822,19.0103784 43.6684034,24.4528245 C43.6820944,25.5694432 43.3965392,26.2927381 42.3834051,26.7513712 C41.8027599,27.0143209 41.3993643,27.5974576 40.7287497,27.7190259 C40.7179925,27.080364 40.7074798,26.4412129 40.697456,25.8020619 C40.8844849,25.1472561 40.7686003,24.4873137 40.7355952,23.8290835 L40.8091844,23.7950835 L40.890108,23.800954 C41.1409467,23.677918 41.2059789,23.4629108 41.2057345,23.2011842 C41.2035341,19.8109683 41.2032896,16.4205079 41.2064679,13.0300475 C41.2069569,12.6905367 41.1910655,12.3747525 40.7783796,12.2766662 C37.7135511,13.7954144 34.7758533,15.542623 31.8259314,17.2673281 C31.756254,17.2538748 31.6899993,17.230882 31.6266784,17.1985942" id="Fill-16" fill="#D8D9DB"></path>
                <path d="M40.6969915,25.8023309 C40.7075042,26.4412374 40.718017,27.0803885 40.7287742,27.7190504 C37.6783701,29.8583597 34.6986214,32.1026043 31.4702343,33.978964 C31.4430968,33.8331799 31.4162037,33.6873957 31.3893107,33.5418561 C31.4030017,33.0560719 31.4118031,32.5702878 31.4308727,32.0849928 C31.5137521,29.9862878 31.2580238,27.8809784 31.563382,25.7871655 L40.6969915,25.8023309 Z" id="Fill-18" fill="#90DAF2"></path>
                <path d="M31.3892374,33.5417583 C31.4161304,33.6875424 31.4430234,33.833082 31.4704054,33.9788662 C28.2434852,32.0362187 25.2167959,29.7971108 22.1270302,27.6514417 C22.1480557,27.0859165 22.1690812,26.520636 22.1901066,25.9548662 C24.6224598,25.9533986 27.0550574,25.9514417 29.487655,25.9507079 C31.2110098,25.9502187 31.1704258,25.9524201 31.222256,27.6252691 C31.2833766,29.5972691 30.99611,31.5797871 31.3892374,33.5417583" id="Fill-20" fill="#FAE77B"></path>
                <path d="M31.4150302,0.255269065 C32.0905345,0.162564029 32.4946635,0.698247482 32.9929182,0.977585612 C36.4208027,2.90090935 39.8276618,4.86165755 43.2413664,6.81066475 C43.2137399,6.84270791 43.1858689,6.87450647 43.1572645,6.90532662 C39.2668197,6.89187338 35.3763749,6.87817554 31.4859301,6.8644777 C31.4622153,4.66132662 31.438745,2.45842014 31.4150302,0.255269065" id="Fill-22" fill="#F6BAB8"></path>
                <path d="M31.4150302,0.255269065 C31.438745,2.45842014 31.4622153,4.66132662 31.4856856,6.8647223 C31.4856856,6.86496691 31.4057399,6.90875108 31.4057399,6.90875108 C27.4984258,6.91242014 23.5911117,6.9156 19.6835531,6.91902446 L19.6603273,6.91853525 C21.9819301,5.31686619 24.5260115,4.09971511 26.9642323,2.6996 C28.4318587,1.85693813 29.9305345,1.06808921 31.4150302,0.255269065" id="Fill-24" fill="#FFDB00"></path>
                <path d="M138.116219,7.20976115 L140.833883,7.20976115 C139.557686,7.58400576 139.480918,8.27819281 139.566731,9.06728633 C139.594602,9.32558849 139.657434,9.75193381 139.281665,9.74435108 C138.777543,9.73481151 139.0032,9.2580777 138.995866,8.98558849 C138.97704,8.27158849 139.203675,7.45681151 138.116219,7.20976115" id="Fill-26" fill="#D8D9DB"></path>
                <path d="M141.725191,7.57524892 C141.898285,7.92429928 142.071133,8.27334964 142.246427,8.62704748 C142.6464,8.50963741 142.550563,8.08842878 142.743459,7.85214101 C143.315059,7.86388201 143.530692,8.13392518 143.351487,8.69088921 C142.603127,8.30661583 142.996254,9.13631367 142.732458,9.30362302 C142.586013,9.39657266 142.632953,9.79307626 142.326862,9.80848633 C142.020281,9.8236518 142.020526,9.50835683 141.884349,9.32955108 C141.687541,9.0702705 141.930556,8.44799712 141.276811,8.55831367 C140.89493,7.9878964 141.557476,7.89470216 141.725191,7.57524892" id="Fill-28" fill="#D8D9DB"></path>
                <path d="M141.725191,7.57524892 C141.557476,7.89470216 140.89493,7.9878964 141.276811,8.55831367 C141.290257,8.89709065 141.303704,9.23586763 141.317395,9.57488921 C141.188797,9.58345036 141.0602,9.59201151 140.931602,9.60057266 C140.906176,8.95873094 140.87586,8.31688921 140.857768,7.67480288 C140.851167,7.43875971 140.817673,7.16822734 141.172172,7.13691799 C141.493667,7.10854388 141.738882,7.17947914 141.725191,7.57524892" id="Fill-30" fill="#FDFDFD"></path>
                <path d="M143.35156,8.69076691 C143.530521,8.13404748 143.315132,7.86375971 142.743533,7.85201871 C142.86993,7.49832086 142.882888,7.00593237 143.468178,7.15538561 C143.926093,7.27181727 143.727818,7.67468058 143.733441,7.95083885 C143.743954,8.49997554 143.691635,9.05033525 143.664986,9.60020576 C143.56377,9.60118417 143.462799,9.60216259 143.361584,9.6028964 C143.219295,9.30032086 143.287506,8.99554388 143.35156,8.69076691" id="Fill-32" fill="#F4F4F4"></path>
                <path d="M140.931578,9.60062158 C141.060175,9.59206043 141.188773,9.58349928 141.31737,9.57493813 C141.351353,9.76939856 141.221289,9.83470791 141.074844,9.82370072 C141.021547,9.81978705 140.979007,9.67889496 140.931578,9.60062158" id="Fill-34" fill="#D8D9DB"></path>
                <path d="M43.4007443,6.91452374 C43.3122418,6.98741583 43.2234947,7.06006331 43.1349922,7.1329554 C43.1484387,7.05761727 43.1557732,6.98178993 43.1572401,6.90547338 C43.1858445,6.87440863 43.2137154,6.84261007 43.2413419,6.81056691 C43.32251,6.80225036 43.3755626,6.83698417 43.4007443,6.91452374" id="Fill-36" fill="#F6BAB8"></path>
                <path d="M143.361584,9.60301871 C143.462799,9.60204029 143.56377,9.60106187 143.664986,9.60008345 C143.616334,9.68275971 143.567682,9.76519137 143.51903,9.84786763 C143.466467,9.76616978 143.414147,9.68447194 143.361584,9.60301871" id="Fill-38" fill="#D8D9DB"></path>
                <path d="M22.1819898,23.8378403 L22.1819898,12.0960993 C25.3543905,13.858718 28.4319321,15.5685022 31.5094737,17.2787755 C31.5141188,17.3391928 31.4906486,17.385423 31.4388183,17.416977 C28.3532088,19.5572647 25.2675993,21.6975525 22.1819898,23.8378403" id="Fill-40" fill="#99A535"></path>
                <path d="M22.1819898,23.8378403 C25.2675993,21.6975525 28.3532088,19.5572647 31.4388183,17.416977 C31.4801358,20.2069338 31.5216978,22.9971353 31.5632598,25.7873367 C31.2579015,27.880905 31.5136299,29.986459 31.4309949,32.0849194 C31.4116808,32.5702144 31.4028795,33.0562432 31.3894329,33.5417827 C30.9960611,31.5795669 31.2833277,29.5972935 31.2222071,27.6250489 C31.1703769,25.9524446 31.210961,25.9502432 29.4876061,25.9507324 C27.0550085,25.9514662 24.6224109,25.9531784 22.1900577,25.9548906 C22.0751511,25.2496964 22.0920204,24.5440129 22.1819898,23.8378403" id="Fill-42" fill="#D4CA00"></path>
                <path d="M31.5632842,25.7872633 C31.5217222,22.9973065 31.4801603,20.207105 31.4388428,17.4169036 C31.490673,17.3853496 31.5141433,17.3391194 31.5094981,17.2787022 C31.5542384,17.259623 31.5936,17.2327165 31.6270941,17.1984719 C31.689926,17.2310043 31.7564251,17.2537525 31.8265915,17.2669612 C31.6845474,17.8510763 32.2605474,17.8843424 32.526544,18.0744 C35.2461637,20.0158245 37.9951212,21.9166446 40.7355219,23.8289612 C40.768527,24.487436 40.8844115,25.1473784 40.6973827,25.8021842 C37.6523572,25.7972921 34.6078207,25.7924 31.5632842,25.7872633" id="Fill-44" fill="#00B3E5"></path>
                <path d="M43.1572156,6.90544892 C43.1557487,6.98176547 43.1484143,7.05759281 43.1349677,7.13293094 C39.3061324,9.28862878 35.4772971,11.4448158 31.6484618,13.6010029 C31.569983,13.5765424 31.4915042,13.5525712 31.4132699,13.5281108 C31.4110696,11.3217799 31.4083803,9.11520432 31.4059355,6.90887338 C31.4059355,6.90887338 31.4856367,6.86508921 31.4856367,6.8648446 C35.376326,6.87829784 39.2667708,6.89175108 43.1572156,6.90544892" id="Fill-46" fill="#FF478C"></path>
                <path d="M31.4058377,6.90877554 C31.4082825,9.11535108 31.4109718,11.321682 31.4134166,13.5282576 C28.2124115,11.7702863 25.0018716,10.0299266 21.8187138,8.24064604 C21.0923572,7.83215683 20.2349582,7.61592662 19.6834065,6.91904892 C23.590965,6.91562446 27.4985236,6.9124446 31.4058377,6.90877554" id="Fill-48" fill="#FF8D03"></path>
                <path d="M40.7355463,23.8290101 C37.9951457,21.9166935 35.2461881,20.0158734 32.5265684,18.0744489 C32.2605718,17.8843914 31.6845718,17.8511252 31.826616,17.2670101 C34.7760489,15.5425496 37.7135022,13.795341 40.7783307,12.2765928 C40.7905548,12.7210388 40.8106024,13.1654849 40.8140251,13.6101755 C40.8411626,17.0069957 40.8651219,20.4040604 40.8900591,23.8011252 L40.8091355,23.7950101 L40.7355463,23.8290101 Z" id="Fill-50" fill="#004BA6"></path>
                <path d="M40.8900102,23.8010518 C40.865073,20.4039871 40.8411138,17.0071669 40.8139762,13.6101022 C40.8105535,13.1656561 40.7905059,12.7209655 40.7782818,12.276764 C41.1909677,12.3746058 41.2068591,12.6903899 41.2063701,13.0301453 C41.2031919,16.4203612 41.2034363,19.8110662 41.2058812,23.201282 C41.2058812,23.462764 41.1410934,23.6777712 40.8900102,23.8010518" id="Fill-52" fill="#E8E8E8"></path>
                <path d="M41.0744475,25.5381338 C40.9365596,25.2529252 40.9091776,24.992177 41.0979178,24.7152849 C41.2441182,25.0014719 41.267344,25.2619755 41.0744475,25.5381338" id="Fill-54" fill="#E8E8E8"></path>
            </g>
        </g>
    </g>
</svg>