<?xml version="1.0" encoding="UTF-8"?>
<svg width="31px" height="25px" viewBox="0 0 31 25" version="1.1" xmlns="http://www.w3.org/2000/svg" xmlns:xlink="http://www.w3.org/1999/xlink">
    <!-- Generator: Sketch 52.4 (67378) - http://www.bohemiancoding.com/sketch -->
    <title>tv-24px (2)</title>
    <desc>Created with Sketch.</desc>
    <g id="Page-1" stroke="none" stroke-width="1" fill="none" fill-rule="evenodd">
        <g id="1440-новое--иви-обзор-кино-copy-5" transform="translate(-883.000000, -368.000000)" fill="#000000" fill-rule="nonzero">
            <g id="tv-24px-(2)" transform="translate(883.000000, 368.000000)">
                <path d="M28.1818182,0 L2.81818182,0 C1.26818182,0 0,1.25 0,2.77777778 L0,19.4444444 C0,20.9722222 1.26818182,22.2222222 2.81818182,22.2222222 L9.86363636,22.2222222 L9.86363636,23.6111111 C9.86363636,24.375 10.4977273,25 11.2727273,25 L19.7272727,25 C20.5022727,25 21.1363636,24.375 21.1363636,23.6111111 L21.1363636,22.2222222 L28.1818182,22.2222222 C29.7318182,22.2222222 30.9859091,20.9722222 30.9859091,19.4444444 L31,2.77777778 C31,1.25 29.7318182,0 28.1818182,0 Z M26.7727273,19.4444444 L4.22727273,19.4444444 C3.45227273,19.4444444 2.81818182,18.8194444 2.81818182,18.0555556 L2.81818182,4.16666667 C2.81818182,3.40277778 3.45227273,2.77777778 4.22727273,2.77777778 L26.7727273,2.77777778 C27.5477273,2.77777778 28.1818182,3.40277778 28.1818182,4.16666667 L28.1818182,18.0555556 C28.1818182,18.8194444 27.5477273,19.4444444 26.7727273,19.4444444 Z" id="Shape"></path>
            </g>
        </g>
    </g>
</svg>